<?xml version="1.0" encoding="UTF-8"?>
<svg version="1.1" xmlns="http://www.w3.org/2000/svg" width="574" height="434">
<path d="M0 0 C1.24652344 -0.01224609 2.49304688 -0.02449219 3.77734375 -0.03710938 C21.34018102 -0.06463733 35.93463851 3.45946636 48.75 16.1875 C56.70554727 25.56423241 61.31082388 37.39743098 66.45556641 48.44042969 C68.21825543 52.18124012 70.06639998 55.87502963 71.9375 59.5625 C74.64470742 64.91320777 77.22615164 70.31053444 79.75 75.75 C82.26137333 81.15505868 84.90212327 86.4520235 87.75 91.6875 C90.97970323 97.62491829 93.90983563 103.66304533 96.7565918 109.79223633 C99.90891821 116.56931698 103.24128769 123.24683452 106.60791016 129.91943359 C108.83234012 134.33690995 111.03947889 138.76305231 113.25 143.1875 C114.19394578 145.07555315 115.13795525 146.96357446 116.08203125 148.8515625 C117.70442708 152.09635417 119.32682292 155.34114583 120.94921875 158.5859375 C121.28308594 159.25359131 121.61695313 159.92124512 121.9609375 160.60913086 C122.60833372 161.90408514 123.25547211 163.19916836 123.90234375 164.49438477 C125.50821538 167.70900741 127.11895194 170.92103935 128.73828125 174.12890625 C132.59284195 181.77815099 136.33015895 189.47058023 139.94995117 197.23388672 C142.08772506 201.812015 144.30027888 206.33947663 146.64453125 210.81640625 C149.7187913 217.41031386 151.25617951 222.87001019 151.1875 230.1875 C151.20748047 230.94289063 151.22746094 231.69828125 151.24804688 232.4765625 C151.24308409 238.2532448 149.70223796 242.2702374 146.75 247.1875 C146.37214355 247.8259082 145.99428711 248.46431641 145.60498047 249.12207031 C141.29671367 256.10812168 134.68638203 259.88350402 126.9375 262.125 C117.12516194 264.22229363 108.50029873 263.0176649 99.75 258.1875 C98.71875 257.671875 97.6875 257.15625 96.625 256.625 C88.16910226 249.45586931 83.64556575 237.38583236 78.8125 227.5625 C78.10060382 226.1267828 77.38836171 224.69123708 76.67578125 223.25585938 C72.81468555 215.4617903 69.0105816 207.64359565 65.3527832 199.75170898 C62.27416077 193.11237453 58.98835282 186.57985525 55.68847656 180.04833984 C54.03309971 176.76600833 52.39251156 173.47628268 50.75 170.1875 C50.20859375 169.1046875 49.6671875 168.021875 49.109375 166.90625 C48.27371418 165.23492836 47.43811395 163.56357627 46.60327148 161.8918457 C45.00856261 158.69951411 43.40915848 155.50968807 41.80078125 152.32421875 C38.34659659 145.46955466 34.98192506 138.5874674 31.75 131.625 C29.2962433 126.34662527 26.72571027 121.1718671 23.9375 116.0625 C19.95950621 108.7648704 16.39676311 101.28499056 12.84130859 93.77416992 C9.67452289 87.09015274 6.42550914 80.45669952 3.03515625 73.88305664 C0.75 69.39928475 0.75 69.39928475 0.75 67.1875 C0.09 67.1875 -0.57 67.1875 -1.25 67.1875 C-1.5078125 68.03183594 -1.765625 68.87617188 -2.03125 69.74609375 C-3.33018883 73.41393063 -4.96957348 76.80174311 -6.75 80.25 C-10.0206492 86.68187148 -13.1660385 93.16414541 -16.25 99.6875 C-20.15686587 107.93549319 -24.16830444 116.12166529 -28.28222656 124.26806641 C-30.28314288 128.23658409 -32.26482803 132.21475202 -34.25048828 136.19091797 C-35.91102983 139.51443468 -37.57574301 142.83571259 -39.25 146.15234375 C-42.68694377 152.97336814 -46.03370862 159.82193877 -49.25 166.75 C-52.05705837 172.79106921 -55.06752179 178.6752781 -58.25 184.52587891 C-61.12697725 189.85699642 -63.70724282 195.30389034 -66.25878906 200.79663086 C-68.74021366 206.13073103 -71.31041307 211.41094262 -73.96655273 216.66015625 C-76.07435194 220.82601608 -78.13936114 225.00963307 -80.17578125 229.2109375 C-80.69366211 230.26982178 -81.21154297 231.32870605 -81.74511719 232.41967773 C-82.76296573 234.50119386 -83.77318942 236.58646221 -84.77441406 238.67602539 C-89.69004877 248.67219894 -96.13235625 259.4274351 -107.1015625 263.546875 C-118.56828503 266.96604317 -127.11656041 265.64615517 -138.25 262.1875 C-138.25 261.5275 -138.25 260.8675 -138.25 260.1875 C-138.81589844 260.1153125 -139.38179687 260.043125 -139.96484375 259.96875 C-145.45814111 258.09069962 -149.75469994 251.86969449 -152.5 246.9453125 C-157.08426637 234.91161328 -153.52443249 223.5311326 -148.5546875 212.3203125 C-144.68175215 203.80448454 -140.3682153 195.53356043 -135.96679688 187.28173828 C-132.84343555 181.39844823 -129.9512072 175.43638963 -127.1484375 169.39501953 C-122.48683723 159.35519192 -117.51692543 149.4853253 -112.25 139.75 C-109.02731835 133.78693745 -106.09480587 127.72027527 -103.23901367 121.57421875 C-100.11741221 114.86402243 -96.81944601 108.25233289 -93.48681641 101.64501953 C-90.8965345 96.49820199 -88.32546671 91.3417419 -85.75 86.1875 C-84.6211582 83.92965528 -83.49225327 81.67184211 -82.36328125 79.4140625 C-81.82783691 78.34317383 -81.29239258 77.27228516 -80.74072266 76.16894531 C-76.91699219 68.52148438 -73.09326172 60.87402344 -69.26953125 53.2265625 C-68.93663086 52.56035889 -68.60373047 51.89415527 -68.26074219 51.20776367 C-67.59212444 49.87133568 -66.92222239 48.53554938 -66.25097656 47.20043945 C-64.54092886 43.7949992 -62.85738937 40.37996964 -61.21484375 36.94140625 C-53.21957082 20.3103923 -43.48043312 9.06930013 -25.92578125 2.28125 C-17.40062969 -0.25545822 -8.82805744 0.00450871 0 0 Z " fill="#F7F7F7" transform="translate(287.25,81.8125)"/>
<path d="M0 0 C0.62261719 0.26683594 1.24523437 0.53367187 1.88671875 0.80859375 C8.70223553 4.13503903 12.4796091 10.26300839 15.35347521 17.09159291 C16.36360831 20.07329632 16.38657018 22.85779255 16.39872742 25.9919281 C16.40537424 26.65944456 16.41202107 27.32696101 16.41886932 28.01470524 C16.43739192 30.23188621 16.43490145 32.44852242 16.43237305 34.66577148 C16.44139681 36.2628505 16.45172554 37.85992259 16.46325684 39.45698547 C16.49078087 43.7787656 16.50010509 48.10041414 16.50611091 52.42227054 C16.51550655 56.94400648 16.54171091 61.4656446 16.56611633 65.98731995 C16.60975227 74.54356508 16.63831708 83.0997912 16.66143972 91.65611368 C16.68850696 101.39979877 16.73241754 111.1433853 16.77772844 120.88699996 C16.87053309 140.9246136 16.94223298 160.96225673 17 181 C15.68 181 14.36 181 13 181 C12.5153125 179.9584375 12.030625 178.916875 11.53125 177.84375 C7.15943287 168.48202365 2.65250469 159.20237995 -2.00439453 149.97949219 C-2.99853825 148.0029063 -3.98320483 146.02188517 -4.96484375 144.0390625 C-8.38372787 137.1410907 -11.87784351 130.29367273 -15.5 123.5 C-19.4768134 116.04113707 -23.28788092 108.51043964 -27.03808594 100.93554688 C-27.95845527 99.0835956 -28.88741534 97.23629208 -29.8203125 95.390625 C-33.97358483 87.16407741 -38.02693349 78.88896893 -42.04336548 70.59487915 C-42.63632073 69.37142702 -43.23052589 68.14857983 -43.82601929 66.92636108 C-44.66774243 65.19753514 -45.50389169 63.46599885 -46.33984375 61.734375 C-46.82831787 60.72600586 -47.31679199 59.71763672 -47.82006836 58.67871094 C-50.72521281 52.08337784 -50.22081975 45.48768547 -50.25 38.375 C-50.270625 37.14136719 -50.29125 35.90773437 -50.3125 34.63671875 C-50.3543082 24.80133882 -49.43984576 15.83224485 -43 8 C-31.47007899 -3.45585299 -15.13117854 -7.11874184 0 0 Z " fill="#F9F9F9" transform="translate(419,85)"/>
<path d="M0 0 C5.09861623 3.79660908 8.43072648 9.04893138 9.64453125 15.27734375 C10.12058464 20.90535275 9.28722117 26.25719082 6.8203125 31.35546875 C6.1603125 31.35546875 5.5003125 31.35546875 4.8203125 31.35546875 C4.6346875 31.91234375 4.4490625 32.46921875 4.2578125 33.04296875 C1.89901279 36.83755959 -1.89849713 39.64259676 -6.1796875 40.98046875 C-13.52113908 42.35699092 -19.75500886 41.13101042 -26.1796875 37.35546875 C-30.42388667 33.46495284 -34.01174772 29.78646587 -34.41796875 23.90625 C-34.79587046 9.66407916 -34.79587046 9.66407916 -30.1796875 4.35546875 C-21.17739188 -3.82321259 -10.9970356 -6.16635397 0 0 Z " fill="#EEF0F0" transform="translate(303.1796875,250.64453125)"/>
<path d="M0 0 C0.99 0.495 0.99 0.495 2 1 C3.12538537 4.3761561 3.13894466 6.95077834 3.15821838 10.51091003 C3.16562535 11.50705817 3.16562535 11.50705817 3.17318195 12.52333051 C3.18856298 14.75277445 3.19691919 16.98218957 3.20532227 19.21166992 C3.21490032 20.80815383 3.22491035 22.4046352 3.23532104 24.00111389 C3.26238409 28.33962462 3.28338608 32.67814624 3.30332303 37.01669478 C3.32517394 41.54909872 3.35256701 46.08146902 3.37937927 50.61384583 C3.42931826 59.198558 3.47425262 67.78328883 3.51740164 76.36803752 C3.5667637 86.14061565 3.62168565 95.91316004 3.67708123 105.68570554 C3.79091979 125.79043893 3.89775476 145.89520453 4 166 C2.68 166 1.36 166 0 166 C0.33 165.01 0.66 164.02 1 163 C1.09387205 160.90810533 1.12629546 158.81328377 1.12698364 156.71928406 C1.12980347 155.40280884 1.13262329 154.08633362 1.13552856 152.72996521 C1.13358415 151.26748644 1.13153598 149.8050078 1.12939453 148.3425293 C1.13074932 146.80504312 1.13252969 145.26755726 1.13470459 143.73007202 C1.13927083 139.55021998 1.13749237 135.37039256 1.1343255 131.19054008 C1.13179638 126.81711494 1.13414112 122.44369194 1.13571167 118.07026672 C1.13753232 110.72205222 1.13513039 103.37384775 1.13037109 96.02563477 C1.12493474 87.53409477 1.12668699 79.04257881 1.1321975 70.5510394 C1.13673884 63.26092215 1.13737399 55.97081213 1.13475883 48.68069392 C1.1332009 44.32660676 1.13298893 39.97253088 1.13629532 35.61844444 C1.13918862 31.52188241 1.13717149 27.42535127 1.13140106 23.32879257 C1.13008103 21.82679483 1.13045471 20.32479448 1.13266373 18.82279778 C1.13540518 16.76905262 1.13195752 14.7154058 1.12698364 12.66166687 C1.12660662 11.5133221 1.12622959 10.36497732 1.12584114 9.18183422 C1.00163381 6.04131022 0.58746562 3.08456738 0 0 Z " fill="#909194" transform="translate(432,100)"/>
<path d="M0 0 C0.495 0.99 0.495 0.99 1 2 C-0.06718201 4.60866715 -1.19863704 7.09862035 -2.4375 9.625 C-2.80294922 10.38482178 -3.16839844 11.14464355 -3.54492188 11.92749023 C-6.95727816 18.99291146 -10.46419027 26.01182614 -14 33.01611328 C-15.67531587 36.33975018 -17.33694003 39.67021872 -19 43 C-19.65618477 44.31253261 -20.31243502 45.62503249 -20.96875 46.9375 C-21.29746094 47.59492188 -21.62617188 48.25234375 -21.96484375 48.9296875 C-24.9765625 54.953125 -27.98828125 60.9765625 -31 67 C-32.65919181 62.02242457 -30.07315062 57.64220437 -28 53 C-26.66666667 51.33333333 -25.33333333 49.66666667 -24 48 C-22.90062773 45.29880797 -21.95793842 42.56431966 -21.015625 39.8046875 C-19.64383663 36.01644116 -17.88048102 32.55948194 -16 29 C-15.34 29 -14.68 29 -14 29 C-14.3403125 28.13375 -14.3403125 28.13375 -14.6875 27.25 C-15 25 -15 25 -13.6875 23.1875 C-13.130625 22.465625 -12.57375 21.74375 -12 21 C-11.26739841 18.68652128 -10.588562 16.354248 -10 14 C-9.34 14 -8.68 14 -8 14 C-7.84144531 13.40832031 -7.68289062 12.81664062 -7.51953125 12.20703125 C-5.91836612 6.78430074 -4.34510752 3.64049549 0 0 Z " fill="#A2A3A6" transform="translate(234,252)"/>
<path d="M0 0 C0.93423645 3.01031744 1.04449911 3.86650268 0 7 C-0.08507079 9.7315956 -0.11591565 12.43691443 -0.09765625 15.16796875 C-0.0962413 15.96278152 -0.09482635 16.7575943 -0.09336853 17.57649231 C-0.08777378 20.11353325 -0.07522228 22.65048575 -0.0625 25.1875 C-0.05748432 26.90820185 -0.05292153 28.62890508 -0.04882812 30.34960938 C-0.03780607 34.5664403 -0.02054506 38.78320516 0 43 C0.99 43.33 1.98 43.66 3 44 C3.33 46.31 3.66 48.62 4 51 C4.66 51 5.32 51 6 51 C8.28457984 55.28225896 10.32458306 59.13699804 11 64 C11.29805007 66.19747131 11.29805007 66.19747131 12 68 C12.99 68.33 13.98 68.66 15 69 C17.02851102 72.83163192 17.49770926 76.73052871 18 81 C15.21655608 77.59326956 13.30030559 73.86637956 11.375 69.9375 C11.03525146 69.25010742 10.69550293 68.56271484 10.34545898 67.85449219 C9.2228975 65.57319865 8.10984508 63.28750624 7 61 C6.59313965 60.16162598 6.1862793 59.32325195 5.76708984 58.45947266 C4.52590882 55.89262727 3.29247223 53.32223334 2.0625 50.75 C1.67304199 49.94038818 1.28358398 49.13077637 0.88232422 48.29663086 C0.52025879 47.53358643 0.15819336 46.77054199 -0.21484375 45.984375 C-0.53573975 45.31116211 -0.85663574 44.63794922 -1.18725586 43.94433594 C-3.80839298 37.6737634 -3.22256068 31.06333401 -3.25 24.375 C-3.270625 23.14136719 -3.29125 21.90773438 -3.3125 20.63671875 C-3.34398006 13.23103372 -2.66862074 6.93318134 0 0 Z " fill="#44464A" transform="translate(372,99)"/>
<path d="M0 0 C0.66 0 1.32 0 2 0 C-0.17284136 8.09877235 -4.32428187 13.32391496 -11.421875 17.70703125 C-20.66714496 22.34367422 -30.72844398 23.3042898 -40.61328125 20.171875 C-44.82275319 18.43572618 -48.06037094 16.57867886 -51 13 C-50.38253906 13.19335938 -49.76507813 13.38671875 -49.12890625 13.5859375 C-46.42641592 14.41684016 -43.71564005 15.21319008 -41 16 C-39.88818359 16.33644531 -39.88818359 16.33644531 -38.75390625 16.6796875 C-29.77350907 19.08544528 -21.29349813 17.97396786 -13 14 C-11.68 14 -10.36 14 -9 14 C-8.34 12.68 -7.68 11.36 -7 10 C-6.34 10 -5.68 10 -5 10 C-5 9.34 -5 8.68 -5 8 C-4.34 8 -3.68 8 -3 8 C-2.814375 6.8553125 -2.814375 6.8553125 -2.625 5.6875 C-2 3 -2 3 0 0 Z " fill="#8E8F93" transform="translate(434,323)"/>
<path d="M0 0 C0.99 0 1.98 0 3 0 C1.35097368 6.04642985 -3.29906853 10.14339333 -8.32421875 13.59765625 C-17.78033516 18.55348952 -27.87068241 18.54579923 -38 16 C-40.00753538 15.35638044 -42.00998727 14.69591219 -44 14 C-43.67 13.34 -43.34 12.68 -43 12 C-41.51988629 12.30798326 -40.04092675 12.621518 -38.5625 12.9375 C-37.73878906 13.11152344 -36.91507813 13.28554688 -36.06640625 13.46484375 C-34 14 -34 14 -33 15 C-30.75365446 15.15289263 -28.50136826 15.22197467 -26.25 15.25 C-25.01765625 15.27578125 -23.7853125 15.3015625 -22.515625 15.328125 C-18.73491067 14.97525833 -17.04601296 14.18237262 -14 12 C-13.30777344 11.55398438 -12.61554688 11.10796875 -11.90234375 10.6484375 C-10.58823463 9.79674849 -9.2757403 8.94256297 -7.96484375 8.0859375 C-5.97454599 6.98593198 -4.22064481 6.44511811 -2 6 C-1.855625 5.38125 -1.71125 4.7625 -1.5625 4.125 C-1 2 -1 2 0 0 Z " fill="#888B8E" transform="translate(193,330)"/>
<path d="M0 0 C0.495 1.485 0.495 1.485 1 3 C0.67 3.66 0.34 4.32 0 5 C-0.66 5 -1.32 5 -2 5 C-2.2784375 5.8353125 -2.2784375 5.8353125 -2.5625 6.6875 C-4.92129971 10.48209084 -8.71880963 13.28712801 -13 14.625 C-20.35194478 16.00348965 -26.49144962 14.61720551 -33 11 C-33.66 10.01 -34.32 9.02 -35 8 C-33.68 7.67 -32.36 7.34 -31 7 C-30.01 8.485 -30.01 8.485 -29 10 C-23.97286642 11.72807717 -16.84196473 12.21193654 -11.90234375 10.10546875 C-10.24423642 9.10919619 -8.61961078 8.057705 -7 7 C-6.01 7 -5.02 7 -4 7 C-4 6.01 -4 5.02 -4 4 C-3.01 4 -2.02 4 -1 4 C-0.67 2.68 -0.34 1.36 0 0 Z " fill="#87888B" transform="translate(310,277)"/>
<path d="M0 0 C1 3 1 3 -0.37109375 5.9765625 C-1.05147008 7.19744212 -1.74094994 8.41327519 -2.4375 9.625 C-6.7043574 17.30838362 -10.44243976 25.18003109 -14.13134766 33.15283203 C-15.3728563 35.79286981 -16.68078827 38.39810856 -18 41 C-18.33 41 -18.66 41 -19 41 C-19.17942163 37.05272412 -19.09350689 34.4019487 -17 31 C-16.34 31 -15.68 31 -15 31 C-15.12375 29.948125 -15.12375 29.948125 -15.25 28.875 C-14.91553181 25.02861582 -13.36503039 22.99106784 -11 20 C-10.34 20 -9.68 20 -9 20 C-8.9175 18.948125 -8.835 17.89625 -8.75 16.8125 C-7.91610505 12.57353399 -6.75374923 11.22582053 -4 8 C-2.5552596 5.384775 -1.26287332 2.70711674 0 0 Z " fill="#717173" transform="translate(260,199)"/>
<path d="M0 0 C0.61875 0.86625 0.61875 0.86625 1.25 1.75 C2.93393252 4.03574142 2.93393252 4.03574142 5 5.875 C7.98206806 9.04344731 9.80567015 12.26139564 10.29296875 16.62109375 C11.43985597 22.10207413 14.30396101 26.72824437 16.9375 31.63085938 C17.34226562 32.40623047 17.74703125 33.18160156 18.1640625 33.98046875 C18.53998535 34.68067139 18.9159082 35.38087402 19.30322266 36.10229492 C20 38 20 38 19 41 C9.4296875 21.859375 9.4296875 21.859375 7.71386719 18.41601562 C6.56551854 16.12717029 5.40455233 13.84461452 4.23144531 11.56835938 C3.68327148 10.49908203 3.13509766 9.42980469 2.5703125 8.328125 C2.07547363 7.37325195 1.58063477 6.41837891 1.07080078 5.43457031 C0 3 0 3 0 0 Z " fill="#1D2023" transform="translate(352,278)"/>
<path d="M0 0 C0.66 0.33 1.32 0.66 2 1 C2 2.65 2 4.3 2 6 C2.66 6 3.32 6 4 6 C5.76462683 9.08809695 6 10.23312136 6 14 C6.99 14 7.98 14 9 14 C10.42258812 17.82320557 11.24042276 20.91281305 11 25 C7.15153439 21.51449263 5.43126021 17.13087735 3.25 12.5 C2.82589844 11.63246094 2.40179688 10.76492187 1.96484375 9.87109375 C1.56910156 9.03707031 1.17335938 8.20304688 0.765625 7.34375 C0.40243164 6.58255859 0.03923828 5.82136719 -0.33496094 5.03710938 C-1 3 -1 3 0 0 Z " fill="#6F7074" transform="translate(305,180)"/>
<path d="M0 0 C0.66 0 1.32 0 2 0 C-0.28616196 8.52114911 -4.64719697 13.16066068 -11.81640625 18.03125 C-14.37760255 19.16752314 -15.42763593 18.97994822 -18 18 C-17.01 17.67 -16.02 17.34 -15 17 C-14.34 16.01 -13.68 15.02 -13 14 C-11.68 14 -10.36 14 -9 14 C-8.34 12.68 -7.68 11.36 -7 10 C-6.34 10 -5.68 10 -5 10 C-5 9.34 -5 8.68 -5 8 C-4.34 8 -3.68 8 -3 8 C-2.87625 7.236875 -2.7525 6.47375 -2.625 5.6875 C-2 3 -2 3 0 0 Z " fill="#6E6F73" transform="translate(434,323)"/>
<path d="M0 0 C1 3 1 3 -0.07983398 5.72729492 C-0.62969971 6.80084229 -1.17956543 7.87438965 -1.74609375 8.98046875 C-2.33583984 10.14384766 -2.92558594 11.30722656 -3.53320312 12.50585938 C-4.1677548 13.73318356 -4.80252324 14.96039569 -5.4375 16.1875 C-6.06927196 17.42596718 -6.70014275 18.66489452 -7.33007812 19.90429688 C-8.87789359 22.94085089 -10.43483137 25.97236409 -12 29 C-13.66089269 24.01732193 -11.06620819 19.64896843 -9 15 C-7.71274093 13.29749607 -6.37868281 11.62935241 -5 10 C-3.22208557 6.71926391 -1.59748964 3.37175067 0 0 Z " fill="#4D4F53" transform="translate(215,290)"/>
<path d="M0 0 C6.57311451 0.75843629 6.57311451 0.75843629 8.80859375 2.0234375 C15.69219159 5.09099447 25.07435184 3.36101642 32 1 C32.66 1.33 33.32 1.66 34 2 C21.6446401 7.2624681 12.52205918 5.61990048 0 2 C0 1.34 0 0.68 0 0 Z " fill="#4C4E54" transform="translate(149,342)"/>
<path d="M0 0 C0.99 0 1.98 0 3 0 C1.33735411 5.52106868 -1.03730173 10.61565588 -3.5 15.8125 C-3.90347656 16.68326172 -4.30695313 17.55402344 -4.72265625 18.45117188 C-5.11324219 19.27810547 -5.50382812 20.10503906 -5.90625 20.95703125 C-6.43702148 22.08588745 -6.43702148 22.08588745 -6.97851562 23.23754883 C-8 25 -8 25 -10 26 C-9.67 23.69 -9.34 21.38 -9 19 C-8.34 19 -7.68 19 -7 19 C-7.061875 17.8553125 -7.061875 17.8553125 -7.125 16.6875 C-7 14 -7 14 -5 11 C-4.34 11 -3.68 11 -3 11 C-2.67 9.02 -2.34 7.04 -2 5 C-1.34 5 -0.68 5 0 5 C0 3.35 0 1.7 0 0 Z " fill="#77787A" transform="translate(280,155)"/>
<path d="M0 0 C0.66 0.33 1.32 0.66 2 1 C1.54625 1.391875 1.0925 1.78375 0.625 2.1875 C-1.27642919 4.30832487 -2.06204028 6.33042235 -3 9 C-2.34 9.33 -1.68 9.66 -1 10 C-2.98 10.99 -2.98 10.99 -5 12 C-5.02709444 14.08326131 -5.04643873 16.16662441 -5.0625 18.25 C-5.07410156 19.41015625 -5.08570313 20.5703125 -5.09765625 21.765625 C-5.01782092 24.40977128 -4.78643778 26.49826091 -4 29 C-5.47265625 27.984375 -5.47265625 27.984375 -7 26 C-7.32832491 23.31424309 -7.47494009 20.93198891 -7.4375 18.25 C-7.43210205 17.5278833 -7.4267041 16.8057666 -7.42114258 16.06176758 C-7.22669525 9.2883909 -5.73162555 6.02429972 -1.25 1.0625 C-0.8375 0.711875 -0.425 0.36125 0 0 Z " fill="#6C6F75" transform="translate(276,252)"/>
<path d="M0 0 C3 1 3 1 4.5 3.5 C7.21289328 9.83008433 9.16606279 16.36961161 11 23 C7.62822528 21.31411264 6.88980474 17.4686725 5.5 14.125 C4.88807277 12.66815233 4.27357974 11.21237913 3.65625 9.7578125 C3.38619141 9.1095752 3.11613281 8.46133789 2.83789062 7.79345703 C1.92865 5.73007334 1.92865 5.73007334 0 3 C0 2.01 0 1.02 0 0 Z " fill="#616266" transform="translate(328,229)"/>
<path d="M0 0 C0.99 0.495 0.99 0.495 2 1 C2 1.99 2 2.98 2 4 C2.99 4 3.98 4 5 4 C7.71391278 8.77357872 9.56561146 12.34388537 9 18 C5.70273748 16.35136874 4.84209148 12.79189039 3.375 9.5625 C2.88773437 8.52125977 2.88773437 8.52125977 2.390625 7.45898438 C0 2.27092634 0 2.27092634 0 0 Z " fill="#6E7175" transform="translate(342,258)"/>
<path d="M0 0 C0.99 0 1.98 0 3 0 C8.55580866 11.33712984 8.55580866 11.33712984 9 18 C6.02795272 15.42958073 4.54721754 12.49513461 2.8125 9 C2.28269531 7.948125 1.75289063 6.89625 1.20703125 5.8125 C0 3 0 3 0 0 Z " fill="#737478" transform="translate(399,197)"/>
<path d="M0 0 C0.33 0 0.66 0 1 0 C1 6.27 1 12.54 1 19 C-0.32 19 -1.64 19 -3 19 C-2.505 17.515 -2.505 17.515 -2 16 C-1.61496448 13.27102562 -1.2601109 10.54871837 -0.9375 7.8125 C-0.84662109 7.06291016 -0.75574219 6.31332031 -0.66210938 5.54101562 C-0.4386269 3.69434465 -0.21894487 1.84721446 0 0 Z " fill="#404144" transform="translate(435,247)"/>
<path d="M0 0 C0.99 0.33 1.98 0.66 3 1 C3.33 3.31 3.66 5.62 4 8 C4.66 8 5.32 8 6 8 C7.32 10.64 8.64 13.28 10 16 C9.34 16.33 8.68 16.66 8 17 C7.731875 16.401875 7.46375 15.80375 7.1875 15.1875 C6.15157249 12.9945915 6.15157249 12.9945915 4.5625 11.6875 C1.53974602 8.4229257 0 4.40987177 0 0 Z " fill="#9A9C9F" transform="translate(372,142)"/>
<path d="M0 0 C1 3 1 3 -0.65234375 6.57421875 C-1.40387723 7.95092168 -2.1660567 9.32185409 -2.9375 10.6875 C-3.51661133 11.7403418 -3.51661133 11.7403418 -4.10742188 12.81445312 C-5.06261773 14.54795672 -6.03015386 16.27465009 -7 18 C-8 15 -8 15 -8 13 C-7.34 13 -6.68 13 -6 13 C-6.061875 12.2575 -6.12375 11.515 -6.1875 10.75 C-5.96760006 7.52480092 -5.21747812 6.30276574 -3 4 C-2.34 4 -1.68 4 -1 4 C-0.67 2.68 -0.34 1.36 0 0 Z " fill="#6B6C6F" transform="translate(269,181)"/>
<path d="M0 0 C1.02665213 0.97261781 2.01709032 1.98319689 3 3 C3.86625 3.886875 4.7325 4.77375 5.625 5.6875 C8.61606141 9.25342006 8.76391443 12.43567899 9 17 C6.00641141 14.41994017 4.54433112 11.45675187 2.8125 7.9375 C2.28269531 6.87402344 1.75289063 5.81054688 1.20703125 4.71484375 C0 2 0 2 0 0 Z " fill="#6A6C70" transform="translate(390,180)"/>
<path d="M0 0 C5.78461538 4.43076923 5.78461538 4.43076923 6.875 7.3125 C6.936875 8.1478125 6.936875 8.1478125 7 9 C8.32 9.33 9.64 9.66 11 10 C11 10.99 11 11.98 11 13 C11.66 13.33 12.32 13.66 13 14 C8.77554039 13.51554362 6.98851756 11.21254431 4.25 8.125 C3.45078125 7.24070312 2.6515625 6.35640625 1.828125 5.4453125 C0 3 0 3 0 0 Z " fill="#848587" transform="translate(136,328)"/>
<path d="M0 0 C0.33 0.66 0.66 1.32 1 2 C-0.21484375 4.8203125 -0.21484375 4.8203125 -1.9375 8.125 C-2.50339844 9.22070312 -3.06929687 10.31640625 -3.65234375 11.4453125 C-4.09707031 12.28835938 -4.54179687 13.13140625 -5 14 C-5.33 14 -5.66 14 -6 14 C-5.87952582 8.97294083 -5.75412763 5.90127449 -2.4375 1.9375 C-1.633125 1.298125 -0.82875 0.65875 0 0 Z " fill="#8D9193" transform="translate(234,252)"/>
<path d="M0 0 C1.32 0.33 2.64 0.66 4 1 C4 2.65 4 4.3 4 6 C4.99 6.33 5.98 6.66 7 7 C6.67 7.99 6.34 8.98 6 10 C6.66 10.33 7.32 10.66 8 11 C8.625 14.0625 8.625 14.0625 9 17 C6.00641141 14.41994017 4.54433112 11.45675187 2.8125 7.9375 C2.28269531 6.87402344 1.75289063 5.81054688 1.20703125 4.71484375 C0 2 0 2 0 0 Z " fill="#6A6A6E" transform="translate(411,222)"/>
<path d="M0 0 C1.875 0.1875 1.875 0.1875 4 1 C5.125 3.25 5.125 3.25 6 6 C6.37125 6.928125 6.7425 7.85625 7.125 8.8125 C7.41375 9.534375 7.7025 10.25625 8 11 C7.34 11.66 6.68 12.32 6 13 C4.99491199 11.21118264 3.99607264 9.41885304 3 7.625 C2.1646875 6.12839844 2.1646875 6.12839844 1.3125 4.6015625 C0 2 0 2 0 0 Z " fill="#808287" transform="translate(420,240)"/>
<path d="M0 0 C0.66 0.33 1.32 0.66 2 1 C0.576875 2.3303125 0.576875 2.3303125 -0.875 3.6875 C-3.50609287 6.30626925 -4.78947102 8.46153067 -6 12 C-7.5 14.3125 -7.5 14.3125 -9 16 C-9.66 16 -10.32 16 -11 16 C-9.04124347 9.73197909 -4.68161858 4.49994383 0 0 Z " fill="#696A72" transform="translate(242,95)"/>
<path d="M0 0 C0.61875 0.86625 0.61875 0.86625 1.25 1.75 C2.93393252 4.03574142 2.93393252 4.03574142 5 5.875 C7.66659103 8.70825297 10 11.99549033 10 16 C9.34 16 8.68 16 8 16 C7.896875 15.360625 7.79375 14.72125 7.6875 14.0625 C7.460625 13.381875 7.23375 12.70125 7 12 C6.01 11.67 5.02 11.34 4 11 C2.83203125 9.2578125 2.83203125 9.2578125 1.8125 7.125 C1.46832031 6.42632812 1.12414062 5.72765625 0.76953125 5.0078125 C0 3 0 3 0 0 Z " fill="#75767C" transform="translate(352,278)"/>
<path d="M0 0 C0.68707555 2.49064888 1 4.37886292 1 7 C0.01 7.495 0.01 7.495 -1 8 C-1.2165625 8.928125 -1.2165625 8.928125 -1.4375 9.875 C-2.10208169 12.38564195 -3.1337574 13.25817358 -5 15 C-3.97137215 9.55432314 -2.75385216 4.88182883 0 0 Z " fill="#898A90" transform="translate(139,294)"/>
<path d="M0 0 C2.97526665 2.55022856 4.50122302 5.40293526 6 9 C5.67 9.99 5.34 10.98 5 12 C4.34 11.01 3.68 10.02 3 9 C1.02 9.99 1.02 9.99 -1 11 C-1.33 10.01 -1.66 9.02 -2 8 C-1.34 7.67 -0.68 7.34 0 7 C0 4.69 0 2.38 0 0 Z " fill="#8B8D91" transform="translate(379,184)"/>
<path d="M0 0 C0.66 0 1.32 0 2 0 C2.268125 0.969375 2.53625 1.93875 2.8125 2.9375 C3.204375 3.948125 3.59625 4.95875 4 6 C4.99 6.33 5.98 6.66 7 7 C7 8.98 7 10.96 7 13 C3.55783328 10.3401439 3.00495326 7.09711714 2 3 C1.34 3 0.68 3 0 3 C-0.33 3.99 -0.66 4.98 -1 6 C-1.33 5.34 -1.66 4.68 -2 4 C-1.0625 1.875 -1.0625 1.875 0 0 Z " fill="#545557" transform="translate(286,146)"/>
<path d="M0 0 C2.21117365 1.8952917 3.19392933 3.39593904 4.5 6.0625 C5.81589255 9.23025749 5.81589255 9.23025749 9 11 C10.1875 14.125 10.1875 14.125 11 17 C10.34 17 9.68 17 9 17 C7.34375 14.8046875 7.34375 14.8046875 5.5 11.875 C4.8915625 10.92367188 4.283125 9.97234375 3.65625 8.9921875 C2.02351953 6.04249047 0.95701561 3.22514261 0 0 Z " fill="#45474B" transform="translate(372,319)"/>
<path d="M0 0 C0.66 0 1.32 0 2 0 C4.64 5.28 7.28 10.56 10 16 C7 15 7 15 5.17578125 11.875 C4.5444076 10.58832695 3.92368845 9.29638301 3.3125 8 C2.83200195 7.01773437 2.83200195 7.01773437 2.34179688 6.015625 C0 1.18223614 0 1.18223614 0 0 Z " fill="#D8DADF" transform="translate(370,313)"/>
<path d="M0 0 C0.66 0.33 1.32 0.66 2 1 C1.1875 4.4375 1.1875 4.4375 0 8 C-0.99 8.33 -1.98 8.66 -3 9 C-4.20882096 11.00016466 -4.20882096 11.00016466 -5 13 C-4.39254603 8.14036821 -2.27241033 4.2594482 0 0 Z " fill="#A4A5A8" transform="translate(218,281)"/>
<path d="M0 0 C0.99 0.66 1.98 1.32 3 2 C2.67 3.32 2.34 4.64 2 6 C0.68 6.33 -0.64 6.66 -2 7 C-2.33 8.65 -2.66 10.3 -3 12 C-3.66 12 -4.32 12 -5 12 C-3.68938409 7.76570244 -2.05643741 3.92592596 0 0 Z " fill="#8B8C93" transform="translate(227,117)"/>
<path d="M0 0 C-0.125 1.875 -0.125 1.875 -1 4 C-4.73397847 5.69726294 -7.92157346 6.23990744 -12 6 C-3 0 -3 0 0 0 Z " fill="#A0A1A4" transform="translate(188,338)"/>
<path d="M0 0 C1 3 1 3 0.00390625 5.26171875 C-0.47175781 6.06222656 -0.94742188 6.86273438 -1.4375 7.6875 C-1.91058594 8.49574219 -2.38367188 9.30398438 -2.87109375 10.13671875 C-3.24363281 10.75160156 -3.61617187 11.36648438 -4 12 C-5.32022153 9.35955695 -5.40974493 7.93650531 -5 5 C-2.5 2.1875 -2.5 2.1875 0 0 Z " fill="#696A70" transform="translate(224,272)"/>
<path d="M0 0 C1.32 0 2.64 0 4 0 C4.33 1.65 4.66 3.3 5 5 C4.34 3.68 3.68 2.36 3 1 C2.34 1 1.68 1 1 1 C0.89042969 1.63808594 0.78085937 2.27617187 0.66796875 2.93359375 C0.50941406 3.75988281 0.35085938 4.58617187 0.1875 5.4375 C0.03667969 6.26121094 -0.11414063 7.08492187 -0.26953125 7.93359375 C-0.51058594 8.61550781 -0.75164062 9.29742187 -1 10 C-1.99 10.33 -2.98 10.66 -4 11 C-3.39301257 6.87248551 -1.96189209 3.6678852 0 0 Z " fill="#CDCDCE" transform="translate(285,145)"/>
<path d="M0 0 C1.6498275 0.42218816 3.29483665 0.86324425 4.9375 1.3125 C6.31228516 1.67794922 6.31228516 1.67794922 7.71484375 2.05078125 C8.46894531 2.36402344 9.22304688 2.67726563 10 3 C10.33 3.99 10.66 4.98 11 6 C6.48986609 5.46939601 3.61621781 3.69113883 0 1 C0 0.67 0 0.34 0 0 Z " fill="#65676B" transform="translate(383,336)"/>
<path d="M0 0 C0.33 0 0.66 0 1 0 C1.04898438 0.66386719 1.09796875 1.32773437 1.1484375 2.01171875 C1.71125812 8.7112236 1.71125812 8.7112236 4 15 C3.34 15.66 2.68 16.32 2 17 C0.14868517 13.07142246 -0.22004943 10.01224888 -0.125 5.6875 C-0.10695312 4.61886719 -0.08890625 3.55023438 -0.0703125 2.44921875 C-0.04710937 1.64097656 -0.02390625 0.83273437 0 0 Z " fill="#505052" transform="translate(133,310)"/>
<path d="M0 0 C0.33 0.99 0.66 1.98 1 3 C0.67 3.66 0.34 4.32 0 5 C-0.66 5 -1.32 5 -2 5 C-2.2475 5.61875 -2.495 6.2375 -2.75 6.875 C-4.20628639 9.35068687 -5.37812506 9.95125002 -8 11 C-7.67 9.68 -7.34 8.36 -7 7 C-6.01 7 -5.02 7 -4 7 C-4 6.01 -4 5.02 -4 4 C-3.01 4 -2.02 4 -1 4 C-0.67 2.68 -0.34 1.36 0 0 Z " fill="#606163" transform="translate(310,277)"/>
<path d="M0 0 C0.99 0 1.98 0 3 0 C4.42258812 3.82320557 5.24042276 6.91281305 5 11 C1.19015156 8.22920113 0.93159248 4.37131855 0 0 Z " fill="#949699" transform="translate(311,194)"/>
<path d="M0 0 C4.05606165 0.46800711 7.46588679 0.87953208 11 3 C11 3.33 11 3.66 11 4 C3.375 3.125 3.375 3.125 0 2 C0 1.34 0 0.68 0 0 Z " fill="#82858A" transform="translate(149,342)"/>
<path d="M0 0 C1.53445094 3.06890187 0.54984289 5.70094266 0 9 C-1.32 9.33 -2.64 9.66 -4 10 C-3.52449439 8.51965236 -3.04448784 7.04074979 -2.5625 5.5625 C-2.29566406 4.73878906 -2.02882812 3.91507812 -1.75390625 3.06640625 C-1 1 -1 1 0 0 Z " fill="#7F8386" transform="translate(158,256)"/>
<path d="M0 0 C3 1 3 1 4.75 3.4375 C5.36875 4.7059375 5.36875 4.7059375 6 6 C5.67 6.66 5.34 7.32 5 8 C3.0625 7.375 3.0625 7.375 1 6 C0.25 2.875 0.25 2.875 0 0 Z " fill="#737377" transform="translate(426,91)"/>
<path d="M0 0 C0.66 0 1.32 0 2 0 C0.90931332 3.77545388 0.0916909 6.47043472 -3 9 C-2.5020163 5.26512223 -2.12508244 3.18762365 0 0 Z " fill="#8A8B8D" transform="translate(434,323)"/>
<path d="M0 0 C2.6875 1.8125 2.6875 1.8125 5 4 C5 4.66 5 5.32 5 6 C-0.75 4.375 -0.75 4.375 -3 1 C-2.01 0.67 -1.02 0.34 0 0 Z " fill="#86878B" transform="translate(278,284)"/>
<path d="M0 0 C0.66 0.33 1.32 0.66 2 1 C-1.625 6.75 -1.625 6.75 -5 9 C-4.42647107 5.12867972 -2.51295648 2.91827204 0 0 Z " fill="#CCCED0" transform="translate(279,250)"/>
<path d="M0 0 C3.2542015 2.83430453 4.5206753 4.68607774 5 9 C4.67 8.34 4.34 7.68 4 7 C2.35636866 6.27840576 0.68949614 5.60648579 -1 5 C-0.34 4.67 0.32 4.34 1 4 C0.67 2.68 0.34 1.36 0 0 Z " fill="#7B7D80" transform="translate(339,104)"/>
<path d="M0 0 C1.98 0.66 3.96 1.32 6 2 C6 2.99 6 3.98 6 5 C6.66 5.33 7.32 5.66 8 6 C4.74456771 5.65120368 3.98126893 4.97866739 1.75 2.4375 C1.1725 1.633125 0.595 0.82875 0 0 Z " fill="#6E6E72" transform="translate(141,336)"/>
<path d="M0 0 C0.33 0.66 0.66 1.32 1 2 C0.06553465 4.03144641 -0.93224776 6.03533587 -2 8 C-2.33 8 -2.66 8 -3 8 C-3.1875 5.125 -3.1875 5.125 -3 2 C-2.01 1.34 -1.02 0.68 0 0 Z " fill="#66676B" transform="translate(231,258)"/>
</svg>
