<?xml version="1.0" encoding="UTF-8"?>
<svg version="1.1" xmlns="http://www.w3.org/2000/svg" width="330" height="72">
<path d="M0 0 C0 11.88 0 23.76 0 36 C-4.29 37.753125 -8.58 39.50625 -13 41.3125 C-15.00513672 42.132948 -15.00513672 42.132948 -17.05078125 42.9699707 C-35.59076902 50.53445224 -35.59076902 50.53445224 -40 50 C-41 49 -41 49 -41.11352539 45.67358398 C-41.11336629 44.19774444 -41.10767314 42.72189931 -41.09765625 41.24609375 C-41.09553383 40.08292381 -41.09553383 40.08292381 -41.09336853 38.89625549 C-41.08775345 36.40996506 -41.07519846 33.9237634 -41.0625 31.4375 C-41.05748694 29.75586067 -41.0529237 28.07421994 -41.04882812 26.39257812 C-41.03777913 22.26168434 -41.02050445 18.13085724 -41 14 C-38.16328479 12.81611863 -35.32607211 11.63344974 -32.48828125 10.45214844 C-30.23507029 9.5141516 -27.98242485 8.57479461 -25.73046875 7.63378906 C-22.4917517 6.28562903 -19.24660333 4.9540417 -16 3.625 C-14.89527344 3.16222656 -13.79054688 2.69945312 -12.65234375 2.22265625 C-11.06099609 1.57490234 -11.06099609 1.57490234 -9.4375 0.9140625 C-8.48746094 0.5217041 -7.53742188 0.1293457 -6.55859375 -0.27490234 C-4 -1 -4 -1 0 0 Z " fill="#17BEFF" transform="translate(86,22)"/>
<path d="M0 0 C2.20771094 0.91481638 4.42894746 1.78839015 6.65405273 2.65991211 C8.0645327 3.23369362 9.4740765 3.80978307 10.88256836 4.38842773 C11.54599747 4.64698044 12.20942657 4.90553314 12.89295959 5.17192078 C14.73632812 5.95947266 14.73632812 5.95947266 17.62866211 7.72045898 C18.55029297 10.42871094 18.55029297 10.42871094 18.62866211 12.72045898 C11.81054027 16.29663074 4.79808421 19.17422179 -2.37133789 21.97045898 C-4.07676758 22.65881836 -4.07676758 22.65881836 -5.81665039 23.36108398 C-6.92782227 23.79420898 -8.03899414 24.22733398 -9.18383789 24.67358398 C-10.1802832 25.06707031 -11.17672852 25.46055664 -12.20336914 25.8659668 C-19.05574101 27.71424836 -24.37026885 26.80312498 -30.82836914 24.16577148 C-31.49801193 23.90416229 -32.16765472 23.6425531 -32.85758972 23.37301636 C-34.25911062 22.82276348 -35.65814187 22.26612962 -37.0546875 21.70336914 C-39.19091672 20.84260667 -41.3338166 20.00064794 -43.47875977 19.16186523 C-44.8457169 18.62256571 -46.2122686 18.08223718 -47.57836914 17.54077148 C-48.21587601 17.2886087 -48.85338287 17.03644592 -49.51020813 16.77664185 C-52.37378177 15.62032876 -54.78749989 14.44301765 -57.37133789 12.72045898 C-57.29296875 10.42871094 -57.29296875 10.42871094 -56.37133789 7.72045898 C-54.07160708 6.3202768 -52.10271275 5.35395095 -49.62524414 4.38842773 C-48.94010239 4.10695389 -48.25496063 3.82548004 -47.54905701 3.53547668 C-46.09436464 2.94370962 -44.63562667 2.36180623 -43.17333984 1.7890625 C-40.96218788 0.91911293 -38.76972467 0.01127012 -36.57641602 -0.90258789 C-22.40640961 -6.68177487 -13.96627707 -5.81915094 0 0 Z " fill="#FCB400" transform="translate(62.371337890625,5.279541015625)"/>
<path d="M0 0 C1.37478516 0.01740234 1.37478516 0.01740234 2.77734375 0.03515625 C3.69644531 0.04417969 4.61554688 0.05320312 5.5625 0.0625 C6.27277344 0.07410156 6.98304688 0.08570313 7.71484375 0.09765625 C18.43270899 25.1555069 18.43270899 25.1555069 22.90234375 36.53515625 C23.19310791 37.26653809 23.48387207 37.99791992 23.78344727 38.75146484 C24.92120017 41.68639429 25.71484375 43.92032215 25.71484375 47.09765625 C22.41484375 47.09765625 19.11484375 47.09765625 15.71484375 47.09765625 C14.39484375 44.12765625 13.07484375 41.15765625 11.71484375 38.09765625 C5.77484375 38.09765625 -0.16515625 38.09765625 -6.28515625 38.09765625 C-7.60515625 41.06765625 -8.92515625 44.03765625 -10.28515625 47.09765625 C-13.58515625 47.09765625 -16.88515625 47.09765625 -20.28515625 47.09765625 C-19.65375689 41.59125353 -17.79099271 36.88684936 -15.72265625 31.796875 C-15.37130615 30.91989456 -15.01995605 30.04291412 -14.65795898 29.13935852 C-13.91772347 27.29512947 -13.17458327 25.45206395 -12.42871094 23.61010742 C-11.28300155 20.77983345 -10.1466432 17.94594173 -9.01171875 15.11132812 C-8.29090668 13.31879233 -7.56957096 11.52646701 -6.84765625 9.734375 C-6.50597412 8.88340744 -6.16429199 8.03243988 -5.81225586 7.15568542 C-5.49522705 6.37429703 -5.17819824 5.59290863 -4.8515625 4.7878418 C-4.57256104 4.09756393 -4.29355957 3.40728607 -4.00610352 2.6960907 C-2.91144916 0.26909871 -2.75855263 0.11788686 0 0 Z M1.71484375 13.09765625 C0.06484375 18.04765625 -1.58515625 22.99765625 -3.28515625 28.09765625 C0.67484375 28.09765625 4.63484375 28.09765625 8.71484375 28.09765625 C7.06484375 23.14765625 5.41484375 18.19765625 3.71484375 13.09765625 C3.05484375 13.09765625 2.39484375 13.09765625 1.71484375 13.09765625 Z " fill="#323232" transform="translate(123.28515625,13.90234375)"/>
<path d="M0 0 C2.97 0 5.94 0 9 0 C9.33 5.61 9.66 11.22 10 17 C11.98 16.01 13.96 15.02 16 14 C20.02579879 13.50273551 23.57467844 14.14426717 27.0625 16.23828125 C31.37872228 19.71823546 33.63355723 22.64384953 34.24609375 28.25390625 C34.55439555 34.37322983 33.55101709 38.95828291 30 44 C26.52478978 47.26459142 23.26275629 48.14786883 18.5625 48.1875 C17.41974609 48.20876953 17.41974609 48.20876953 16.25390625 48.23046875 C13.76652685 47.97612666 12.15191894 47.24017196 10 46 C9.505 46.495 9.505 46.495 9 47 C6.03 47 3.06 47 0 47 C0 31.49 0 15.98 0 0 Z M9 28 C8.36992307 31.99048721 8.36978113 34.01685857 10.5625 37.4375 C13.94217804 39.60396028 16.05983987 39.56288002 20 39 C22.60314994 37.6469872 22.60314994 37.6469872 24 35 C24.60966834 32.19322499 24.6655395 29.79985585 24 27 C21.61054251 24.26919144 20.02666021 23.23099855 16.5 22.4375 C12.72407146 23.28708392 11.2867416 24.92923271 9 28 Z " fill="#323232" transform="translate(249,14)"/>
<path d="M0 0 C0.66 -0.66 1.32 -1.32 2 -2 C4.64 -2 7.28 -2 10 -2 C10 8.56 10 19.12 10 30 C6 30 2 30 -2 30 C-2.99 30.495 -2.99 30.495 -4 31 C-9.64887653 31.58748316 -14.22020846 31.33473828 -19 28 C-23.57403129 22.06612157 -24.6575483 17.30609217 -24 10 C-22.23771748 4.12572495 -19.90286067 1.40198496 -15 -2 C-10.26690103 -4.20877952 -4.12883036 -2.75255357 0 0 Z M-14 11 C-14.63007693 14.99048721 -14.63021887 17.01685857 -12.4375 20.4375 C-9.05782196 22.60396028 -6.94016013 22.56288002 -3 22 C-0.41666667 20.58333333 -0.41666667 20.58333333 1 18 C1.75011367 14.54271642 1.75011367 14.54271642 1 11 C-1.28591655 7.93034063 -2.75502329 6.31124418 -6.5 5.375 C-10.24497671 6.31124418 -11.71408345 7.93034063 -14 11 Z " fill="#323232" transform="translate(234,31)"/>
<path d="M0 0 C1.40069664 0.49126375 2.79760482 0.99340774 4.19140625 1.50390625 C4.93261719 1.77251465 5.67382812 2.04112305 6.4375 2.31787109 C8.88303527 3.21711479 11.31957234 4.13727475 13.75390625 5.06640625 C14.6267627 5.39946777 15.49961914 5.7325293 16.39892578 6.07568359 C19.02653863 7.09243673 21.64150691 8.13624086 24.25390625 9.19140625 C25.08462646 9.5155249 25.91534668 9.83964355 26.77124023 10.17358398 C27.53895752 10.49141846 28.3066748 10.80925293 29.09765625 11.13671875 C29.78021484 11.41273926 30.46277344 11.68875977 31.16601562 11.97314453 C32.75390625 13.06640625 32.75390625 13.06640625 33.48242188 15.18701172 C33.57201172 15.80721191 33.66160156 16.42741211 33.75390625 17.06640625 C27.26056779 21.39529856 20.42039437 24.77636153 13.35229492 28.05273438 C11.42289178 28.95001653 9.50158388 29.86329329 7.58007812 30.77734375 C6.35071855 31.35124282 5.12091644 31.92419509 3.890625 32.49609375 C2.23099731 33.27315674 2.23099731 33.27315674 0.5378418 34.06591797 C-2.24609375 35.06640625 -2.24609375 35.06640625 -5.24609375 34.06640625 C-5.24609375 22.84640625 -5.24609375 11.62640625 -5.24609375 0.06640625 C-3.24609375 -0.93359375 -3.24609375 -0.93359375 0 0 Z " fill="#F72A5F" transform="translate(5.24609375,21.93359375)"/>
<path d="M0 0 C5.19375712 5.44711113 4.5625 7.60639258 4.5625 15.6875 C-2.6975 15.6875 -9.9575 15.6875 -17.4375 15.6875 C-15.07114966 20.90114742 -15.07114966 20.90114742 -11.125 21.6875 C-6.99938652 21.6875 -5.00360807 20.63264986 -1.4375 18.6875 C1.5625 19.6875 1.5625 19.6875 3.5625 22.6875 C3.625 24.625 3.625 24.625 2.5625 26.6875 C-2.41016133 30.579148 -6.51192408 31.31925292 -12.78125 31.078125 C-17.69540823 30.35545467 -20.94685133 28.32721354 -24.3125 24.625 C-27.34546812 19.40155491 -26.99560684 13.53987032 -26.4375 7.6875 C-24.02228392 2.67816294 -20.51566349 -1.20094096 -15.1875 -3.125 C-9.64849013 -3.50265976 -4.50842511 -3.59127 0 0 Z M-15.875 6.5625 C-17.53623174 8.38217209 -17.53623174 8.38217209 -17.4375 9.6875 C-13.1475 9.6875 -8.8575 9.6875 -4.4375 9.6875 C-5.0975 8.3675 -5.7575 7.0475 -6.4375 5.6875 C-11.46478802 4.19013408 -11.46478802 4.19013408 -15.875 6.5625 Z " fill="#323232" transform="translate(325.4375,31.3125)"/>
<path d="M0 0 C2.97 0 5.94 0 9 0 C9 3.96 9 7.92 9 12 C10.98 12 12.96 12 15 12 C16 13 16 13 16.0625 16.5625 C16.041875 17.696875 16.02125 18.83125 16 20 C14.02 20.33 12.04 20.66 10 21 C10 25.62 10 30.24 10 35 C11.32 35.33 12.64 35.66 14 36 C14 38.64 14 41.28 14 44 C5.8372093 44.62790698 5.8372093 44.62790698 2.5 42.125 C0.37492525 39.11447744 -0.12324409 37.50066101 -0.09765625 33.8671875 C-0.09443359 33.06152344 -0.09121094 32.25585938 -0.08789062 31.42578125 C-0.07951172 30.58402344 -0.07113281 29.74226563 -0.0625 28.875 C-0.05798828 28.02550781 -0.05347656 27.17601563 -0.04882812 26.30078125 C-0.03702874 24.20049091 -0.01909306 22.1002367 0 20 C-1.65 20 -3.3 20 -5 20 C-5 17.36 -5 14.72 -5 12 C-3.35 12 -1.7 12 0 12 C0 8.04 0 4.08 0 0 Z " fill="#323232" transform="translate(193,17)"/>
<path d="M0 0 C2.97 0 5.94 0 9 0 C9 15.51 9 31.02 9 47 C6.03 47 3.06 47 0 47 C0 31.49 0 15.98 0 0 Z " fill="#323232" transform="translate(286,14)"/>
<path d="M0 0 C0 3.3 0 6.6 0 10 C-2.01822917 10.65104167 -4.03645833 11.30208333 -6.0546875 11.953125 C-8.6449465 13.34707964 -9.08933733 14.19515897 -10 17 C-10.2952194 19.77394833 -10.50712231 22.4700511 -10.625 25.25 C-10.68300781 26.36761719 -10.68300781 26.36761719 -10.7421875 27.5078125 C-10.83605108 29.3381524 -10.91909718 31.16904143 -11 33 C-13.97 33 -16.94 33 -20 33 C-20.02465504 28.60343827 -20.04283842 24.2069128 -20.05493164 19.81030273 C-20.05997121 18.31355082 -20.06680287 16.81680384 -20.07543945 15.32006836 C-20.08752159 13.17300193 -20.09323191 11.02600038 -20.09765625 8.87890625 C-20.10289307 7.5854126 -20.10812988 6.29191895 -20.11352539 4.95922852 C-20 2 -20 2 -19 1 C-16.32941149 0.85884839 -13.67567762 0.95752893 -11 1 C-10.67 1.99 -10.34 2.98 -10 4 C-9.13375 3.2884375 -9.13375 3.2884375 -8.25 2.5625 C-5.48023273 0.63905051 -3.34663231 0 0 0 Z " fill="#323232" transform="translate(185,28)"/>
<path d="M0 0 C9.26192465 3.13079143 18.438461 6.45091222 27.5 10.125 C28.33055908 10.44919922 29.16111816 10.77339844 30.0168457 11.10742188 C30.78472412 11.42517578 31.55260254 11.74292969 32.34375 12.0703125 C33.02630859 12.34633301 33.70886719 12.62235352 34.41210938 12.90673828 C36 14 36 14 36.72851562 16.12060547 C36.81810547 16.74080566 36.90769531 17.36100586 37 18 C28.738041 23.55580866 28.738041 23.55580866 24 24 C24 23.34 24 22.68 24 22 C23.48050781 21.78859375 22.96101563 21.5771875 22.42578125 21.359375 C18.96556883 19.42031876 16.16146398 16.85818231 13.1875 14.25 C12.59646484 13.73695312 12.00542969 13.22390625 11.39648438 12.6953125 C10.20493018 11.66098629 9.01465609 10.6251835 7.82568359 9.58789062 C4.89824151 7.04174415 1.94931607 4.52074446 -1 2 C-0.67 1.34 -0.34 0.68 0 0 Z " fill="#BC2048" transform="translate(2,21)"/>
<path d="M0 0 C2.64 0 5.28 0 8 0 C8 10.56 8 21.12 8 32 C5.03 32 2.06 32 -1 32 C-1.02465504 27.60343827 -1.04283842 23.2069128 -1.05493164 18.81030273 C-1.05997121 17.31355082 -1.06680287 15.81680384 -1.07543945 14.32006836 C-1.08752159 12.17300193 -1.09323191 10.02600038 -1.09765625 7.87890625 C-1.10289307 6.5854126 -1.10812988 5.29191895 -1.11352539 3.95922852 C-1 1 -1 1 0 0 Z " fill="#333333" transform="translate(152,29)"/>
<path d="M0 0 C3.5625 0.1875 3.5625 0.1875 5.5625 2.1875 C5.8125 5.1875 5.8125 5.1875 5.5625 8.1875 C3.5625 10.1875 3.5625 10.1875 0.0625 10.5 C-1.67 10.3453125 -1.67 10.3453125 -3.4375 10.1875 C-5.4375 7.1875 -5.4375 7.1875 -5.125 4.0625 C-4.20842511 0.22955046 -4.20842511 0.22955046 0 0 Z " fill="#323232" transform="translate(155.4375,13.8125)"/>
</svg>
