<?xml version="1.0" encoding="UTF-8"?>
<svg version="1.1" xmlns="http://www.w3.org/2000/svg" width="960" height="1198">
<path d="M0 0 C0.69654694 0.00215515 1.39309387 0.0043103 2.11074829 0.00653076 C13.38202434 0.06223432 24.25697118 0.68559441 35.25 3.3125 C36.07435547 3.50585938 36.89871094 3.69921875 37.74804688 3.8984375 C79.07467396 13.9132671 114.43519021 39.47642818 136.73144531 75.72070312 C140.38403591 81.83678212 143.82090673 88.06931389 147.25 94.3125 C149.70495357 98.75187438 152.16510417 103.18836276 154.625 107.625 C155.25704346 108.76751221 155.88908691 109.91002441 156.5402832 111.0871582 C161.25866549 119.59418931 166.12077223 128.00779621 171.05029297 136.39379883 C175.20877051 143.48357584 179.25332894 150.63040749 183.25 157.8125 C188.93660125 168.0250908 194.77733922 178.13815163 200.6875 188.22265625 C204.3821331 194.52820419 208.03852681 200.85544436 211.6875 207.1875 C212.31003662 208.26765381 212.93257324 209.34780762 213.57397461 210.46069336 C214.83576826 212.65046334 216.09740534 214.84032355 217.35888672 217.03027344 C220.48680148 222.45909942 223.61858448 227.88569281 226.75 233.3125 C228.00001879 235.47915583 229.25001878 237.6458225 230.5 239.8125 C231.428125 241.42125 231.428125 241.42125 232.375 243.0625 C264.25 298.3125 296.125 353.5625 328 408.8125 C328.61866943 409.88483887 329.23733887 410.95717773 329.87475586 412.06201172 C331.1256448 414.23026264 332.37645852 416.39855697 333.62719727 418.56689453 C336.73798335 423.95967915 339.85004238 429.35172093 342.96484375 434.7421875 C349.75961564 446.50456573 356.52593156 458.28265507 363.25897217 470.08044434 C370.54689554 482.8489814 377.89369169 495.58325876 385.25 508.3125 C394.61446802 524.5166295 403.94050918 540.74200548 413.21528625 556.99760437 C415.5808104 561.14269582 417.95143995 565.2848391 420.32421875 569.42578125 C427.35540889 581.70046346 434.34460622 593.9966358 441.22949219 606.35424805 C443.9535466 611.23790964 446.69777818 616.1066191 449.5078125 620.94140625 C472.74844118 660.92879999 483.96350367 704.49988737 471.9609375 750.34375 C468.99395921 761.0903977 465.11480612 771.2900145 460.25 781.3125 C459.95399902 781.93431152 459.65799805 782.55612305 459.35302734 783.19677734 C451.85111065 798.78017534 441.19381406 811.91004348 429.25 824.3125 C428.66089844 824.95316406 428.07179688 825.59382812 427.46484375 826.25390625 C402.31273683 852.88918409 362.61441215 867.77413546 326.54956055 869.43701172 C298.68162917 870.22284882 272.38105823 865.66505405 247.25 853.3125 C246.13367188 852.76851562 245.01734375 852.22453125 243.8671875 851.6640625 C209.46919238 834.0091879 187.90318594 805.16847286 169.25 772.3125 C167.93173176 770.00347745 166.61286748 767.69480834 165.29296875 765.38671875 C163.26417061 761.83805375 161.23612826 758.28897025 159.2121582 754.73754883 C154.93549217 747.23654967 150.61301126 739.76366919 146.25 732.3125 C141.2181021 723.7173271 136.24610876 715.08937778 131.3125 706.4375 C126.12557574 697.34170013 120.92318494 688.25537737 115.6875 679.1875 C115.07197266 678.12144531 114.45644531 677.05539062 113.82226562 675.95703125 C111.96529806 672.74192477 110.10776421 669.52714622 108.25 666.3125 C100.18910696 652.36405632 92.15290574 638.40246112 84.17263794 624.40777588 C79.01664555 615.36920572 73.79679327 606.36972862 68.53881836 597.39013672 C63.71127164 589.13326358 58.96451329 580.83155969 54.22949219 572.52148438 C49.61497196 564.42505867 44.95904745 556.35443491 40.25 548.3125 C35.53964627 540.26833426 30.88260631 532.19539342 26.26693726 524.09664917 C20.68280487 514.29965816 15.08660211 504.50970006 9.4375 494.75 C8.85677734 493.73873047 8.27605469 492.72746094 7.67773438 491.68554688 C7.13826172 490.75677734 6.59878906 489.82800781 6.04296875 488.87109375 C5.5739917 488.05954834 5.10501465 487.24800293 4.62182617 486.41186523 C3.32650078 484.42957246 1.99004303 482.90767299 0.25 481.3125 C-0.15375854 482.38721558 -0.15375854 482.38721558 -0.56567383 483.48364258 C-1.75954874 486.33530793 -3.14455543 488.9033623 -4.69921875 491.57421875 C-5.29202637 492.59684814 -5.88483398 493.61947754 -6.49560547 494.6730957 C-7.13643066 495.77097412 -7.77725586 496.86885254 -8.4375 498 C-9.11378809 499.16410682 -9.78972578 500.32841726 -10.46533203 501.49291992 C-11.86704026 503.90846524 -13.27024899 506.32313004 -14.67431641 508.73730469 C-17.23054642 513.13598424 -19.7659248 517.54660636 -22.30224609 521.95678711 C-30.02216342 535.37513256 -37.84297349 548.7329338 -45.68093872 562.0824585 C-54.56660368 577.21873094 -63.38425738 592.39342222 -72.14501953 607.60229492 C-76.32372378 614.85255774 -80.52762764 622.08759146 -84.75 629.3125 C-89.58676442 637.59027098 -94.39861975 645.88193133 -99.1875 654.1875 C-99.81084229 655.26845947 -100.43418457 656.34941895 -101.07641602 657.46313477 C-104.21116816 662.90153137 -107.34200536 668.34215209 -110.46875 673.78515625 C-116.80074765 684.79790505 -123.18927243 695.77190239 -129.6875 706.6875 C-136.61844826 718.3324066 -143.367298 730.07240073 -150.06640625 741.8515625 C-153.60398935 748.069793 -157.20040474 754.25225599 -160.80981445 760.42895508 C-163.72190717 765.44620143 -166.48982006 770.52878342 -169.22241211 775.64575195 C-191.3860842 817.05784887 -223.42095842 849.49030403 -268.91015625 863.65234375 C-276.44230613 865.87303144 -283.95939177 867.33158055 -291.75 868.3125 C-292.40460205 868.4038623 -293.0592041 868.49522461 -293.73364258 868.58935547 C-312.16716021 870.96473238 -331.58706403 870.18998071 -349.75 866.3125 C-350.52424316 866.15152832 -351.29848633 865.99055664 -352.09619141 865.82470703 C-380.67095719 859.67241516 -405.6121352 845.29119157 -426.75 825.3125 C-427.94882812 824.21035156 -427.94882812 824.21035156 -429.171875 823.0859375 C-456.40429155 797.15443257 -473.31962466 757.7413018 -474.87597656 720.28027344 C-475.22395103 705.37903775 -475.05597305 690.88676505 -471.75 676.3125 C-471.58371094 675.56887207 -471.41742188 674.82524414 -471.24609375 674.05908203 C-466.126234 651.98205716 -455.39001431 631.38091292 -442.44140625 612.890625 C-440.62227725 610.11781868 -439.23082088 607.28109398 -437.75 604.3125 C-435.72916804 600.74646111 -433.64229079 597.21939437 -431.5625 593.6875 C-426.28069588 584.67532649 -421.05078478 575.63601971 -415.875 566.5625 C-415.54329803 565.98123352 -415.21159607 565.39996704 -414.86984253 564.80108643 C-412.49500316 560.63911214 -410.12223111 556.47596135 -407.75 552.3125 C-405.04310624 547.56167808 -402.33529654 542.81138166 -399.625 538.0625 C-399.12543793 537.18712585 -399.12543793 537.18712585 -398.61578369 536.29406738 C-393.47647333 527.29271232 -388.27288709 518.3303681 -383.03637695 509.38525391 C-378.23564601 501.17306671 -373.50850731 492.91972821 -368.796875 484.65625 C-363.36066155 475.12196795 -357.88904894 465.60867796 -352.39697266 456.10644531 C-348.1426282 448.74028163 -343.91650945 441.35837811 -339.703125 433.96875 C-333.87131169 423.74064665 -327.9849777 413.54659984 -322.03662109 403.38574219 C-317.58083656 395.76344222 -313.18602854 388.10718689 -308.8125 380.4375 C-301.78396493 368.11224804 -294.70759566 355.81527933 -287.60888672 343.53027344 C-284.48675395 338.12579355 -281.36858796 332.71902588 -278.25 327.3125 C-277.00001878 325.1458225 -275.75001879 322.97915583 -274.5 320.8125 C-273.571875 319.20375 -273.571875 319.20375 -272.625 317.5625 C-255.75 288.3125 -238.875 259.0625 -222 229.8125 C-221.38116943 228.73983887 -220.76233887 227.66717773 -220.12475586 226.56201172 C-218.87564482 224.39692929 -217.62645871 222.23189018 -216.37719727 220.06689453 C-213.23797691 214.62634294 -210.10009437 209.18502784 -206.96484375 203.7421875 C-200.34858883 192.25943103 -193.70609989 180.79289099 -187.01928711 169.35107422 C-182.10531617 160.93678769 -177.23232801 152.49924183 -172.37524414 144.05200195 C-169.24591865 138.61518166 -166.0965935 133.19194082 -162.90234375 127.79296875 C-154.93047103 114.38367534 -154.93047103 114.38367534 -148.09765625 100.37890625 C-129.98797342 59.17281634 -99.69321886 26.68763514 -57.39501953 10.06323242 C-51.65251628 7.89866589 -45.86217164 6.03590233 -39.9375 4.4375 C-39.23455811 4.24639648 -38.53161621 4.05529297 -37.80737305 3.85839844 C-25.36569721 0.72916718 -12.78093236 -0.07189695 0 0 Z " fill="#3C8BD8" transform="translate(479.75,-0.3125)"/>
<path d="M0 0 C0.33 0 0.66 0 1 0 C0.63431228 4.74478293 0.25890879 9.40688683 -0.97265625 14.015625 C-4.06443081 25.74531617 -4.41754013 37.25673849 -4.4375 49.3125 C-4.44621628 50.52794495 -4.44621628 50.52794495 -4.45510864 51.76794434 C-4.50855515 62.58354849 -3.57147894 72.45159072 -1 83 C-0.80672119 83.84022705 -0.61344238 84.6804541 -0.41430664 85.54614258 C5.84064501 111.87922459 19.57536062 134.80378368 33.17382812 157.89599609 C36.10718479 162.8819181 39.02278288 167.87816551 41.9375 172.875 C42.79927856 174.35141968 42.79927856 174.35141968 43.6784668 175.85766602 C48.61251595 184.31809499 53.50573013 192.80180241 58.39428711 201.28857422 C62.57327623 208.53922037 66.77738823 215.77468179 71 223 C77.74713114 234.54722486 84.4333937 246.12902119 91.10888672 257.71777344 C93.6131413 262.0641714 96.11993352 266.40910273 98.62695312 270.75390625 C100.50290515 274.00503479 102.37840529 277.25642374 104.25390625 280.5078125 C106.73930902 284.81601651 109.22641977 289.12322789 111.71484375 293.4296875 C121.47175632 310.31955754 131.15559596 327.25021083 140.82128906 344.19238281 C141.959837 346.1878613 143.09858012 348.18322845 144.23754883 350.1784668 C145.2535287 351.95828209 146.26902686 353.73837249 147.28393555 355.51879883 C147.73293213 356.30536865 148.18192871 357.09193848 148.64453125 357.90234375 C149.05268066 358.62534668 149.46083008 359.34834961 149.88134766 360.09326172 C151.06571053 362.17079767 151.06571053 362.17079767 152.88671875 364.69140625 C154.419436 367.86977781 153.80789401 369.59515537 153 373 C151.67163086 375.71533203 151.67163086 375.71533203 149.96484375 378.5078125 C149.32877197 379.56210449 148.6927002 380.61639648 148.03735352 381.70263672 C147.69600372 382.25884705 147.35465393 382.81505737 147.00296021 383.38812256 C145.15668971 386.39785071 143.34262197 389.42697757 141.5234375 392.453125 C141.14621048 393.07867279 140.76898346 393.70422058 140.38032532 394.34872437 C136.49989299 400.79672038 132.77509684 407.32892254 129.0625 413.875 C123.56958431 423.54146038 118.0073325 433.16408877 112.375 442.75 C112.01852386 443.35677582 111.66204773 443.96355164 111.29476929 444.5887146 C109.87803603 446.99979477 108.46097612 449.41068246 107.04341125 451.8212738 C98.15677625 466.93479906 89.35618096 482.09752146 80.60498047 497.28979492 C76.42627622 504.54005774 72.22237236 511.77509146 68 519 C63.16323558 527.27777098 58.35138025 535.56943133 53.5625 543.875 C52.93915771 544.95595947 52.31581543 546.03691895 51.67358398 547.15063477 C48.53883184 552.58903137 45.40799464 558.02965209 42.28125 563.47265625 C35.94925235 574.48540505 29.56072757 585.45940239 23.0625 596.375 C16.13155174 608.0199066 9.382702 619.75990073 2.68359375 631.5390625 C-0.85398935 637.757293 -4.45040474 643.93975599 -8.05981445 650.11645508 C-10.97190717 655.13370143 -13.73982006 660.21628342 -16.47241211 665.33325195 C-38.6360842 706.74534887 -70.67095842 739.17780403 -116.16015625 753.33984375 C-123.69230613 755.56053144 -131.20939177 757.01908055 -139 758 C-139.65460205 758.0913623 -140.3092041 758.18272461 -140.98364258 758.27685547 C-159.41716021 760.65223238 -178.83706403 759.87748071 -197 756 C-197.77424316 755.83902832 -198.54848633 755.67805664 -199.34619141 755.51220703 C-227.92095719 749.35991516 -252.8621352 734.97869157 -274 715 C-275.19882812 713.89785156 -275.19882812 713.89785156 -276.421875 712.7734375 C-303.65429155 686.84193257 -320.56962466 647.4288018 -322.12597656 609.96777344 C-322.47395103 595.06653775 -322.30597305 580.57426505 -319 566 C-318.83371094 565.25637207 -318.66742188 564.51274414 -318.49609375 563.74658203 C-313.376234 541.66955716 -302.64001431 521.06841292 -289.69140625 502.578125 C-287.87227725 499.80531868 -286.48082088 496.96859398 -285 494 C-282.97916804 490.43396111 -280.89229079 486.90689437 -278.8125 483.375 C-273.53069588 474.36282649 -268.30078478 465.32351971 -263.125 456.25 C-262.79329803 455.66873352 -262.46159607 455.08746704 -262.11984253 454.48858643 C-259.74500316 450.32661214 -257.37223111 446.16346135 -255 442 C-252.29310624 437.24917808 -249.58529654 432.49888166 -246.875 427.75 C-246.37543793 426.87462585 -246.37543793 426.87462585 -245.86578369 425.98156738 C-240.72647333 416.98021232 -235.52288709 408.0178681 -230.28637695 399.07275391 C-225.48564601 390.86056671 -220.75850731 382.60722821 -216.046875 374.34375 C-210.61066155 364.80946795 -205.13904894 355.29617796 -199.64697266 345.79394531 C-195.3926282 338.42778163 -191.16650945 331.04587811 -186.953125 323.65625 C-181.12131169 313.42814665 -175.2349777 303.23409984 -169.28662109 293.07324219 C-164.83083656 285.45094222 -160.43602854 277.79468689 -156.0625 270.125 C-149.03396493 257.79974804 -141.95759566 245.50277933 -134.85888672 233.21777344 C-131.73675395 227.81329355 -128.61858796 222.40652588 -125.5 217 C-124.25001878 214.8333225 -123.00001879 212.66665583 -121.75 210.5 C-121.13125 209.4275 -120.5125 208.355 -119.875 207.25 C-103 178 -86.125 148.75 -69.25 119.5 C-68.63116943 118.42733887 -68.01233887 117.35467773 -67.37475586 116.24951172 C-66.12564482 114.08442929 -64.87645871 111.91939018 -63.62719727 109.75439453 C-60.48797691 104.31384294 -57.35009437 98.87252784 -54.21484375 93.4296875 C-47.59858883 81.94693103 -40.95609989 70.48039099 -34.26928711 59.03857422 C-29.98754928 51.70687256 -25.73820183 44.35694059 -21.5 37 C-19.63559376 33.76696229 -17.77065159 30.53423485 -15.90527344 27.30175781 C-14.60070433 25.04099505 -13.29668891 22.7799191 -11.99316406 20.51855469 C-10.04181566 17.13463933 -8.08367746 13.75467875 -6.125 10.375 C-5.52365234 9.33085938 -4.92230469 8.28671875 -4.30273438 7.2109375 C-3.75166016 6.2621875 -3.20058594 5.3134375 -2.6328125 4.3359375 C-2.14699707 3.49595215 -1.66118164 2.6559668 -1.16064453 1.79052734 C-0.77763184 1.19965332 -0.39461914 0.6087793 0 0 Z " fill="#F9BB04" transform="translate(327,110)"/>
<path d="M0 0 C0.74590393 0.00115814 1.49180786 0.00231628 2.26031494 0.00350952 C13.87147131 0.03911131 25.02172542 0.77512574 36.375 3.3125 C37.40882813 3.51746094 38.44265625 3.72242188 39.5078125 3.93359375 C67.94951489 10.1721688 93.50559527 25.32335136 114.375 45.3125 C115.11878906 46.00472656 115.86257813 46.69695313 116.62890625 47.41015625 C143.02123511 72.70089225 159.63653292 110.68629065 160.57098389 147.14936829 C160.6448397 150.95371536 160.67561315 154.75748971 160.6875 158.5625 C160.69011841 159.36285675 160.69273682 160.1632135 160.69543457 160.98782349 C160.70121108 177.48368709 158.6624531 192.6533397 153.3046875 208.328125 C152.5356796 210.79670498 152.000451 213.1392436 151.50390625 215.66796875 C150.49207022 220.33506246 148.72883377 224.20648905 146.4375 228.375 C146.045625 229.09961426 145.65375 229.82422852 145.25 230.57080078 C123.34470152 270.18402667 89.76515791 299.6969811 46.22216797 312.53466797 C39.68179998 314.32146375 33.10031805 315.46571178 26.375 316.3125 C25.39309692 316.44954346 25.39309692 316.44954346 24.39135742 316.58935547 C5.95783979 318.96473238 -13.46206403 318.18998071 -31.625 314.3125 C-32.39924316 314.15152832 -33.17348633 313.99055664 -33.97119141 313.82470703 C-62.54595719 307.67241516 -87.4871352 293.29119157 -108.625 273.3125 C-109.42421875 272.57773437 -110.2234375 271.84296875 -111.046875 271.0859375 C-138.27929155 245.15443257 -155.19462466 205.7413018 -156.75097656 168.28027344 C-157.09895103 153.37903775 -156.93097305 138.88676505 -153.625 124.3125 C-153.45871094 123.56887207 -153.29242188 122.82524414 -153.12109375 122.05908203 C-148.06536607 100.25859704 -137.28703745 75.43955248 -122.625 58.3125 C-120.4453125 57.63671875 -120.4453125 57.63671875 -118.625 57.3125 C-118.3775 56.61125 -118.13 55.91 -117.875 55.1875 C-116.27336653 51.50374301 -114.06384991 49.85215055 -111.0078125 47.31640625 C-108.43472559 45.15248234 -106.00984146 42.86738427 -103.5625 40.5625 C-84.84169933 23.59034555 -62.66887541 11.40967109 -38.375 4.5 C-37.69115234 4.30494873 -37.00730469 4.10989746 -36.30273438 3.90893555 C-24.30170729 0.69761255 -12.3557592 -0.05954624 0 0 Z " fill="#34A851" transform="translate(161.625,551.6875)"/>
<path d="M0 0 C1.29916553 1.20026712 2.59374041 2.40563701 3.875 3.625 C-0.82266975 9.28629431 -5.87223372 14.47728904 -11.125 19.625 C-14.27913176 17.77318396 -17.27879152 15.81705437 -20.25 13.6875 C-32.81766478 5.22485135 -48.27892321 3.58651366 -62.94921875 6.34375 C-77.98951233 10.75794267 -90.39826625 19.78372631 -98.125 33.625 C-104.8557274 48.4500827 -106.66584324 64.03088438 -101.125 79.625 C-95.68506435 93.27714619 -86.29117197 104.05793325 -72.77734375 110.12890625 C-57.6308194 116.12262671 -41.3845785 116.98315771 -26.125 110.625 C-15.01063047 104.89769734 -7.99362419 98.12036266 -3.125 86.625 C-2.135 82.665 -1.145 78.705 -0.125 74.625 C-16.625 74.625 -33.125 74.625 -50.125 74.625 C-50.125 67.365 -50.125 60.105 -50.125 52.625 C-40.75463746 52.60244757 -31.38429282 52.5840841 -22.01390934 52.57318783 C-17.66331541 52.56795935 -13.31274093 52.56086235 -8.9621582 52.54956055 C-4.76709742 52.53873041 -0.57205541 52.5327229 3.62301826 52.53012276 C5.22706968 52.52826874 6.83112003 52.52464856 8.4351635 52.51926994 C10.67416515 52.51205781 12.9130883 52.51100913 15.15209961 52.51147461 C16.42895126 52.509254 17.70580292 52.50703339 19.02134705 52.50474548 C21.875 52.625 21.875 52.625 22.875 53.625 C24.55127687 75.0489744 22.49941429 96.34711201 8.11767578 113.41308594 C-0.7300283 123.27475397 -11.52641705 130.41997559 -24.125 134.625 C-25.04796875 134.94339844 -25.9709375 135.26179688 -26.921875 135.58984375 C-42.99237495 140.20267244 -61.43385969 139.00279781 -77.125 133.625 C-78.17558594 133.274375 -79.22617188 132.92375 -80.30859375 132.5625 C-99.70931927 125.29668862 -115.12016675 109.81641098 -123.72265625 91.16015625 C-131.3195597 72.17897182 -132.310578 49.84006442 -124.36132812 30.79541016 C-120.94887938 22.96191721 -116.66679011 16.12271661 -111.125 9.625 C-110.22394531 8.43003906 -110.22394531 8.43003906 -109.3046875 7.2109375 C-97.03252733 -7.348507 -77.01431405 -16.43855696 -58.28515625 -18.24609375 C-36.7746791 -19.52972078 -16.44967973 -14.55065274 0 0 Z " fill="#747474" transform="translate(129.125,1014.375)"/>
<path d="M0 0 C1.65408725 1.39326312 3.2232003 2.88646946 4.76953125 4.3984375 C5.09953125 2.0884375 5.42953125 -0.2215625 5.76953125 -2.6015625 C12.69953125 -2.6015625 19.62953125 -2.6015625 26.76953125 -2.6015625 C26.83747539 10.62071506 26.89244443 23.84287548 26.92496777 37.06528854 C26.94058218 43.20586414 26.9617431 49.34631346 26.99584961 55.48681641 C27.02859389 61.41961142 27.04641599 67.35228543 27.05416298 73.28516388 C27.05967951 75.54162753 27.07045155 77.79808503 27.08672142 80.05449677 C27.21089921 98.00008173 25.84190308 110.71328176 16.01953125 126.1484375 C6.2966617 135.87130705 -6.2020198 140.42276066 -19.85546875 140.6484375 C-33.25928852 140.49913753 -45.31690021 135.87496868 -55.1171875 126.71875 C-59.66930272 121.72067894 -63.72198901 116.04914142 -65.23046875 109.3984375 C-62.10791932 108.05931165 -58.98204517 106.72813092 -55.85546875 105.3984375 C-54.96601563 105.016875 -54.0765625 104.6353125 -53.16015625 104.2421875 C-52.309375 103.88125 -51.45859375 103.5203125 -50.58203125 103.1484375 C-49.40374756 102.64570312 -49.40374756 102.64570312 -48.20166016 102.1328125 C-46.23046875 101.3984375 -46.23046875 101.3984375 -44.23046875 101.3984375 C-43.27349753 102.92425849 -42.38993805 104.49641977 -41.54296875 106.0859375 C-38.08450894 112.03516155 -34.56247619 114.8435007 -28.41796875 117.7109375 C-19.44965228 119.64528027 -11.23341711 118.51138315 -3.41796875 113.6484375 C3.14143283 106.90162445 4.86865522 98.99605321 4.89453125 89.8359375 C4.86300637 88.35651994 4.82509863 86.87714721 4.76953125 85.3984375 C4.0425 85.99591797 4.0425 85.99591797 3.30078125 86.60546875 C-5.76337104 93.76963527 -14.36774587 95.86891203 -25.953125 95.25390625 C-39.56754435 93.42929335 -51.68120168 85.60709444 -59.91796875 74.8359375 C-68.74891435 61.30595662 -70.53676946 46.47108424 -67.53125 30.73828125 C-63.31926994 16.96492872 -54.44921639 5.60523343 -41.8125 -1.3828125 C-28.89659269 -7.47927707 -12.04668168 -8.64998159 0 0 Z M-38.28515625 23.22265625 C-44.30931451 29.96052001 -46.55524955 38.36597902 -46.16796875 47.2734375 C-45.33311383 55.134988 -41.95011559 62.83766974 -36.23046875 68.3984375 C-28.62551708 73.26061972 -22.32166754 75.43369181 -13.23046875 74.3984375 C-5.23345942 71.85081881 -0.144668 67.39811059 4.01953125 60.25390625 C7.86509018 52.20226724 8.07269351 43.12772483 6.109375 34.49609375 C3.39874532 26.88051512 -1.88031658 19.77356998 -9.22265625 16.0859375 C-20.6322326 12.17915649 -29.81278485 15.14881103 -38.28515625 23.22265625 Z " fill="#747474" transform="translate(445.23046875,1057.6015625)"/>
<path d="M0 0 C6.93 0 13.86 0 21 0 C24.81448159 8.99808571 28.34623844 18.07957142 31.76171875 27.234375 C32.31124226 28.70214696 32.86097082 30.16984217 33.41088867 31.63746643 C34.87149206 35.53719246 36.32942622 39.43791073 37.7866478 43.33890152 C39.29709801 47.38156712 40.80935473 51.42355679 42.3215332 55.46557617 C42.92991775 57.0917811 43.53830093 58.71798655 44.14668274 60.3441925 C44.44745539 61.14814264 44.74822803 61.95209278 45.05811501 62.78040504 C45.96816085 65.21326876 46.87786031 67.6462618 47.78752136 70.07926941 C51.43461318 79.83164564 55.09938915 89.57710236 58.78125 99.31640625 C60.02864631 102.62114273 61.27576714 105.92598308 62.52285767 109.23083496 C63.29638857 111.27761196 64.07158401 113.3237607 64.84848022 115.3692627 C65.90721829 118.15732385 66.96012577 120.947519 68.01171875 123.73828125 C68.31972412 124.54415176 68.62772949 125.35002228 68.94506836 126.18031311 C70.09740316 129.2522256 71 131.69028667 71 135 C64.4 135 57.8 135 51 135 C46.71 123.12 42.42 111.24 38 99 C19.85 99 1.7 99 -17 99 C-20.90560654 110.09886179 -20.90560654 110.09886179 -24.80834961 121.19873047 C-25.29791038 122.58825277 -25.78756841 123.97774081 -26.27734375 125.3671875 C-26.65832214 126.45302124 -26.65832214 126.45302124 -27.04699707 127.56079102 C-28.8859282 132.7718564 -28.8859282 132.7718564 -30 135 C-36.6 135 -43.2 135 -50 135 C-49.2427707 130.45662418 -48.44379605 127.11251602 -46.84887695 122.90527344 C-46.3986618 121.7095018 -45.94844666 120.51373016 -45.48458862 119.28172302 C-44.98592486 117.97423349 -44.48715229 116.66678546 -43.98828125 115.359375 C-43.46592291 113.97825352 -42.94405353 112.59694703 -42.42263794 111.21546936 C-41.01726885 107.49615844 -39.60510311 103.77946245 -38.1916008 100.06323624 C-36.72225884 96.19685928 -35.25903609 92.32816801 -33.79516602 88.4597168 C-31.3913292 82.10968236 -28.98369309 75.76110076 -26.57324219 69.41357422 C-23.44387588 61.17270233 -20.32226537 52.92891447 -17.20340157 44.68406296 C-15.18944432 39.36070562 -13.1739007 34.03794869 -11.15810776 28.71528625 C-10.67659955 27.44384948 -10.19513664 26.17239554 -9.71371841 24.90092468 C-8.14284325 20.75232692 -6.5699762 16.60448894 -4.99609375 12.45703125 C-4.60253693 11.41764908 -4.2089801 10.37826691 -3.80349731 9.30738831 C-3.44609467 8.36652878 -3.08869202 7.42566925 -2.72045898 6.45629883 C-2.25518044 5.22959221 -2.25518044 5.22959221 -1.78050232 3.97810364 C-1 2 -1 2 0 0 Z M10 23 C7.48952317 29.81284759 4.98121229 36.6264898 2.47436523 43.44067383 C1.62231825 45.75595914 0.76978597 48.07106593 -0.08325195 50.38598633 C-1.31330704 53.72429696 -2.54158267 57.06325779 -3.76953125 60.40234375 C-4.14777542 61.42770737 -4.52601959 62.45307098 -4.91572571 63.50950623 C-5.45594612 64.98001183 -5.45594612 64.98001183 -6.00708008 66.48022461 C-6.32018631 67.33071884 -6.63329254 68.18121307 -6.95588684 69.05747986 C-8.36136675 73.01840392 -9.67092915 77.01278746 -11 81 C3.19 81 17.38 81 32 81 C27.87583725 68.33977945 23.55587015 55.75912422 19.07089233 43.22277832 C18.48100401 41.57157194 17.89362882 39.91946564 17.30874634 38.26647949 C16.47739577 35.91977914 15.63652626 33.57671059 14.79296875 31.234375 C14.41517776 30.16074707 14.41517776 30.16074707 14.02975464 29.06542969 C12.88933671 25.32937933 12.88933671 25.32937933 10 23 Z " fill="#747474" transform="translate(702,1014)"/>
<path d="M0 0 C6.27 0 12.54 0 19 0 C19 44.55 19 89.1 19 135 C13.06 135 7.12 135 1 135 C0.67 131.7 0.34 128.4 0 125 C-1.155 126.0725 -2.31 127.145 -3.5 128.25 C-12.17964732 135.80083554 -21.66753483 138.51804463 -33.10546875 138.24609375 C-45.59341974 137.18436512 -54.56256379 132.22777206 -63.1484375 123.265625 C-72.51980826 111.79854685 -76.01147222 97.56520003 -75 83 C-72.72884212 67.11977799 -66.58716776 55.90639119 -54.1875 45.625 C-44.78221279 39.1079506 -34.18335583 37.83778487 -23 39 C-13.46896735 40.98423838 -6.79568061 45.20431939 0 52 C0 34.84 0 17.68 0 0 Z M-48 65 C-48.51433594 65.62261719 -49.02867187 66.24523438 -49.55859375 66.88671875 C-56.86842367 76.08974204 -57.02723625 85.65573885 -56 97 C-54.17537947 105.71884542 -48.85565321 111.94760788 -42 117.375 C-35.04434238 121.14264788 -27.29850413 122.52126709 -19.60546875 120.3125 C-10.19790535 116.46613677 -5.41059689 111.07079543 -1.15625 101.89453125 C0.1901295 98.52403393 0.86038134 95.63008511 1 92 C1.0928125 90.081875 1.0928125 90.081875 1.1875 88.125 C0.98144029 78.3839955 -2.07430557 69.77589692 -9.18359375 62.8828125 C-15.8820407 57.43820638 -21.49206138 55.50733095 -30.1171875 55.68359375 C-37.41226703 56.48427321 -43.33061395 59.2929726 -48 65 Z " fill="#757575" transform="translate(852,1014)"/>
<path d="M0 0 C1.27137679 1.05816453 2.52139962 2.14245668 3.75 3.25 C4.41644531 3.82492187 5.08289063 4.39984375 5.76953125 4.9921875 C12.58529438 11.2736365 17.78194933 19.44670407 20.75 28.25 C20.75 29.57 20.75 30.89 20.75 32.25 C-0.7693622 41.62018147 -22.473201 50.49749891 -44.25 59.25 C-44.25 62.80586569 -43.1716441 64.1319418 -40.87890625 66.7578125 C-35.33031354 71.84069599 -28.1676005 73.6282439 -20.8203125 73.53125 C-12.02654491 72.56901403 -4.90656968 68.75976927 0.625 61.9375 C0.99625 61.380625 1.3675 60.82375 1.75 60.25 C6.18170173 61.76896368 9.78024076 64.17639809 13.5625 66.875 C14.15998047 67.29523438 14.75746094 67.71546875 15.37304688 68.1484375 C16.83520565 69.17779728 18.29304899 70.2132823 19.75 71.25 C18.46413923 77.88157407 13.40943556 81.9713055 8.1875 85.875 C0.71084326 90.88955528 -8.1868202 94.74649001 -17.25 95.25 C-18.0440625 95.30027344 -18.838125 95.35054687 -19.65625 95.40234375 C-33.40765779 95.896288 -45.96689131 92.00351676 -56.4375 83.0625 C-66.4672043 73.52089748 -72.37809694 62.18452203 -73.48828125 48.26171875 C-73.84729093 32.18186425 -69.83502679 18.57981142 -59.25 6.25 C-43.12037022 -7.58643961 -18.43674543 -13.05193197 0 0 Z M-46.25 25.25 C-49.22764651 30.34797578 -50.87759016 35.28789348 -50.25 41.25 C-44.3701965 39.3619956 -38.63255637 37.27094076 -32.93359375 34.89453125 C-32.19166275 34.58803146 -31.44973175 34.28153168 -30.68531799 33.96574402 C-28.35151297 33.00086271 -26.01948689 32.03176602 -23.6875 31.0625 C-22.09061134 30.40141111 -20.49360708 29.74060139 -18.89648438 29.08007812 C-15.01298154 27.47327024 -11.13106638 25.86268346 -7.25 24.25 C-7.9482984 20.43371803 -9.41487689 18.76026318 -12.5078125 16.35546875 C-24.84626126 8.52636337 -37.83610832 15.43127542 -46.25 25.25 Z " fill="#747474" transform="translate(593.25,1058.75)"/>
<path d="M0 0 C7.56729727 6.01473628 13.03746659 13.05152956 16.5703125 22.04296875 C16.88871094 22.84863281 17.20710938 23.65429688 17.53515625 24.484375 C21.73423554 37.15901525 20.89632775 51.887891 15.5703125 64.04296875 C8.53993272 77.72777218 -0.91081577 85.82797849 -15.38671875 91.1328125 C-30.12314481 95.54049834 -44.39271661 92.74210103 -57.7421875 85.6328125 C-69.50874145 78.67207492 -76.56543884 66.79296529 -80.046875 53.7265625 C-81.54089385 43.25318544 -81.33778291 31.93187414 -77.4296875 22.04296875 C-77.10097656 21.20636719 -76.77226562 20.36976562 -76.43359375 19.5078125 C-71.01384053 7.37431654 -61.47128883 -0.93190622 -49.47265625 -6.2734375 C-32.83252893 -12.28062812 -14.57595259 -9.96519208 0 0 Z M-52.80078125 23.7421875 C-58.31087028 31.52502309 -58.30175166 39.67818889 -57.4296875 49.04296875 C-55.64949125 56.93729141 -51.20607111 63.96287091 -44.33984375 68.390625 C-37.06027531 72.17274715 -29.90789521 73.22649268 -21.9296875 70.98046875 C-14.00750228 68.04379664 -9.18519007 62.49499568 -5.33984375 55.15625 C-1.90739337 47.18648325 -2.09318326 36.45498371 -5.1796875 28.41796875 C-8.72943496 20.93505164 -13.74113934 16.33272483 -21.1171875 12.73046875 C-34.38533348 9.9767026 -44.24206703 13.1777948 -52.80078125 23.7421875 Z " fill="#747474" transform="translate(239.4296875,1060.95703125)"/>
<path d="M0 0 C11.31991265 7.73912395 18.46219029 18.4471077 21.74609375 31.6953125 C24.2824386 47.69984514 21.75235789 62.5347966 12.25 75.875 C2.46726244 87.69051419 -9.71791468 93.57066919 -24.95703125 95.22265625 C-38.50474404 95.63104078 -53.16073097 91.01571251 -63.16796875 81.6171875 C-75.30700735 68.24925857 -78.60930066 53.71396281 -77.92919922 36.23095703 C-77.00288822 24.05261756 -70.73087195 12.93598769 -61.93359375 4.6875 C-44.21791191 -10.01746668 -19.7237156 -11.53960124 0 0 Z M-49.01953125 23.6328125 C-55.01245413 31.39790896 -55.97549464 40.38411388 -55.06347656 49.92822266 C-53.78405767 57.87377271 -49.14649208 64.65047761 -42.88671875 69.5390625 C-36.19871187 73.72059514 -29.22310613 74.94456828 -21.53125 73.44140625 C-13.47695388 71.22095818 -7.94644311 66.37748129 -3.8125 59.1875 C0.36212231 51.22033946 0.46212045 41.65766379 -1.36328125 32.94921875 C-4.14366813 25.07349731 -9.60632117 19.21273529 -17 15.375 C-29.10039544 10.70174383 -40.51762292 14.36725971 -49.01953125 23.6328125 Z " fill="#747474" transform="translate(344.75,1059.125)"/>
<path d="M0 0 C4.54538333 3.36985316 8.0367393 7.45831637 10.265625 12.6796875 C10.265625 13.6696875 10.265625 14.6596875 10.265625 15.6796875 C7.99955448 16.71244091 5.72880561 17.73102301 3.453125 18.7421875 C2.81052734 19.03673828 2.16792969 19.33128906 1.50585938 19.63476562 C-3.39453125 21.79296875 -3.39453125 21.79296875 -6.734375 20.6796875 C-7.98828125 19.19140625 -7.98828125 19.19140625 -9.296875 17.3671875 C-13.38998033 12.43108529 -18.61346562 10.34143937 -24.875 9.3359375 C-31.00776798 9.04620043 -36.28607988 10.96588091 -41.234375 14.4296875 C-43.42403181 17.71417272 -43.35395177 19.82454313 -42.734375 23.6796875 C-40.03289358 26.9214652 -37.13194941 27.96300808 -33.19921875 29.109375 C-32.31234375 29.36847656 -31.42546875 29.62757812 -30.51171875 29.89453125 C-27.83900318 30.65010907 -25.1617986 31.38501574 -22.48046875 32.109375 C-21.60583984 32.34785156 -20.73121094 32.58632812 -19.83007812 32.83203125 C-18.05626377 33.31425852 -16.28017941 33.78821129 -14.50195312 34.25390625 C-6.73538163 36.39759462 0.94046033 39.29758071 6.203125 45.6796875 C7.02103516 46.63875 7.02103516 46.63875 7.85546875 47.6171875 C12.591858 54.54464878 12.0316555 62.64846244 11.265625 70.6796875 C8.75792222 78.37775184 1.25127274 84.25479101 -5.671875 87.9921875 C-17.60259864 93.37951039 -31.5537505 93.25150367 -43.734375 88.6796875 C-53.70368596 83.86875996 -61.5870633 76.04796675 -65.734375 65.6796875 C-65.734375 65.0196875 -65.734375 64.3596875 -65.734375 63.6796875 C-63.46630296 62.6729871 -61.19529746 61.67416984 -58.921875 60.6796875 C-58.27927734 60.39351562 -57.63667969 60.10734375 -56.97460938 59.8125 C-54.05681031 58.54257709 -51.95171786 57.6796875 -48.734375 57.6796875 C-47.41015625 59.69140625 -47.41015625 59.69140625 -46.046875 62.3671875 C-42.47482959 68.55698187 -38.90586193 71.4023239 -32.09375 73.48828125 C-24.61387282 75.17020894 -18.71086046 74.54102112 -11.796875 71.3046875 C-9.48947664 69.48673727 -8.5413866 68.5042281 -7.734375 65.6796875 C-7.81346275 61.96256315 -8.44311409 60.08745277 -10.609375 57.0546875 C-16.8376356 52.32120944 -24.25339394 50.77610664 -31.73730469 48.92602539 C-42.53985752 46.23806128 -53.31752757 43.50548512 -59.734375 33.6796875 C-63.40290611 27.22813278 -63.77113346 20.63020915 -62.265625 13.44140625 C-60.02677125 6.57825338 -55.69893294 1.61652007 -49.546875 -2.0703125 C-33.40492394 -10.19491577 -15.25945218 -9.64512543 0 0 Z " fill="#747474" transform="translate(948.734375,1060.3203125)"/>
<path d="M0 0 C7.26 0 14.52 0 22 0 C22 49.17 22 98.34 22 149 C14.74 149 7.48 149 0 149 C0 99.83 0 50.66 0 0 Z " fill="#757575" transform="translate(488,1002)"/>
</svg>
