<?xml version="1.0" encoding="UTF-8"?>
<svg version="1.1" xmlns="http://www.w3.org/2000/svg" width="1280" height="348">
<path d="M0 0 C1.17844482 0.00757324 2.35688965 0.01514648 3.57104492 0.02294922 C12.86706349 0.19792408 20.92180273 1.29637668 29.6875 4.4375 C30.86957031 4.85 32.05164063 5.2625 33.26953125 5.6875 C42.13202074 9.1269667 53.13860904 14.54349859 59.12988281 22.30639648 C61.79876812 25.66537928 63.53708251 27.25924394 67.87182617 27.9309082 C71.0917655 27.97423917 74.2785421 27.91391073 77.49368286 27.7354126 C80.97958748 27.54937016 84.46692279 27.49373624 87.95703125 27.44140625 C88.63690598 27.42998596 89.3167807 27.41856567 90.01725769 27.40679932 C98.0779348 27.32771329 105.1267476 28.78503932 112.6875 31.4375 C113.89792969 31.86160156 115.10835938 32.28570312 116.35546875 32.72265625 C138.87763867 41.53995069 154.31098042 58.52217764 165 79.6875 C172.8495327 97.81357969 174.4915613 118.6876238 169.24609375 137.7578125 C168.66496028 140.54562763 168.59933945 141.83679629 169.6875 144.4375 C171.04807938 146.29961568 171.04807938 146.29961568 172.75 148.1875 C188.03346155 167.33899812 191.9723588 192.08718003 189.41943359 215.94238281 C186.09480104 237.63948976 173.37628519 258.35835742 156.05761719 271.69238281 C145.22884885 279.5183731 133.04047216 285.65300142 119.6875 287.4375 C119.58566406 288.28828125 119.48382813 289.1390625 119.37890625 290.015625 C117.26248943 300.49009469 110.58562831 309.55983747 103.6875 317.4375 C103.14609375 318.12199219 102.6046875 318.80648438 102.046875 319.51171875 C88.50235376 336.24511999 66.24408773 345.68227108 45.27026367 347.98828125 C21.42203361 350.12068139 -0.64170981 343.21509334 -19.70825195 328.85522461 C-21.3125 327.4375 -21.3125 327.4375 -22.73510742 325.56860352 C-25.43648417 322.13438574 -27.19041255 320.60556779 -31.60668945 319.9440918 C-34.95862622 319.90068234 -38.2583411 319.96076315 -41.60333252 320.1395874 C-45.20901901 320.3250438 -48.81605929 320.38105543 -52.42578125 320.43359375 C-53.12471497 320.44501404 -53.82364868 320.45643433 -54.54376221 320.46820068 C-62.41219413 320.54359895 -68.96633605 319.21502489 -76.3125 316.4375 C-77.49972656 316.01339844 -78.68695313 315.58929688 -79.91015625 315.15234375 C-101.89017852 306.56602384 -117.95107238 289.90009406 -128.125 268.9375 C-133.10583315 257.28683146 -135.51287375 245.49338203 -135.5625 232.875 C-135.56644775 231.999646 -135.57039551 231.12429199 -135.57446289 230.22241211 C-135.51556439 223.58752604 -134.62480643 217.69984754 -132.87109375 211.28515625 C-132.26513113 208.19601813 -132.32690476 206.41399764 -133.3125 203.4375 C-134.65043403 201.48242189 -134.65043403 201.48242189 -136.375 199.625 C-151.13460655 181.3425244 -154.74953452 158.30160233 -153.3125 135.4375 C-150.56922401 112.05837815 -137.87672796 91.34756326 -119.953125 76.48046875 C-109.02036221 68.35427091 -96.75349489 62.64697861 -83.3125 60.4375 C-83.17521484 59.43783203 -83.17521484 59.43783203 -83.03515625 58.41796875 C-80.44459226 47.73364267 -73.66799748 37.41365885 -66.3125 29.4375 C-65.50167969 28.53515625 -64.69085938 27.6328125 -63.85546875 26.703125 C-47.06804089 8.90795989 -24.44220061 -0.2223462 0 0 Z M-46.3125 43.4375 C-47.03308594 44.14777344 -47.75367187 44.85804687 -48.49609375 45.58984375 C-59.71088447 57.31343405 -64.49584054 72.45723591 -64.42602539 88.38037109 C-64.42617142 89.2590686 -64.42631744 90.13776611 -64.4264679 91.04309082 C-64.42577413 93.93239861 -64.4180069 96.82164104 -64.41015625 99.7109375 C-64.40829017 101.72018397 -64.40686716 103.72943089 -64.40586853 105.73867798 C-64.40205836 111.01582098 -64.3922409 116.29293627 -64.38116455 121.57006836 C-64.37091816 126.95946884 -64.366364 132.34887382 -64.36132812 137.73828125 C-64.35061726 148.30469965 -64.33355888 158.87109751 -64.3125 169.4375 C-60.66666552 171.55894111 -57.01875918 173.67676011 -53.36889648 175.79125977 C-52.12776153 176.51097212 -50.88719637 177.23166802 -49.6472168 177.95336914 C-47.86396078 178.99104275 -46.07868003 180.02515249 -44.29296875 181.05859375 C-43.21942139 181.6817749 -42.14587402 182.30495605 -41.03979492 182.94702148 C-38.3414306 184.52644536 -38.3414306 184.52644536 -35.3125 185.4375 C-35.30885437 184.18326736 -35.30520874 182.92903473 -35.30145264 181.63679504 C-35.26452339 169.82113227 -35.2067732 158.00573061 -35.12859726 146.19026661 C-35.08907562 140.11568427 -35.05691 134.04124791 -35.04150391 127.96655273 C-35.02636841 122.10493158 -34.99197763 116.24371165 -34.94419098 110.38226891 C-34.92934518 108.14519423 -34.92145716 105.90806227 -34.92061615 103.67093849 C-34.91825443 100.53906012 -34.89123778 97.40829772 -34.85839844 94.27661133 C-34.8634288 93.35016312 -34.86845917 92.4237149 -34.87364197 91.4691925 C-34.80604442 87.30676915 -34.68462207 85.03471329 -32.44161987 81.43495178 C-30.01224264 79.15581102 -27.62339743 77.59618132 -24.7109375 75.9765625 C-23.59372314 75.34766113 -22.47650879 74.71875977 -21.32543945 74.07080078 C-20.11281859 73.40132077 -18.90017145 72.73188837 -17.6875 72.0625 C-16.43187958 71.35908027 -15.17692443 70.65447179 -13.92260742 69.94873047 C-11.33475555 68.49333004 -8.74457255 67.04221296 -6.15283203 65.59375 C-0.27918008 62.30398765 5.54746904 58.93316539 11.375 55.5625 C12.44234375 54.94640869 13.5096875 54.33031738 14.609375 53.69555664 C23.33033536 48.65730617 32.02038421 43.56775656 40.6875 38.4375 C31.80347081 28.48126039 16.05579781 24.24752327 3.1875 23.2421875 C-16.01559736 22.45945255 -32.89580904 29.83670351 -46.3125 43.4375 Z M34.515625 68.546875 C28.72673513 72.03398028 22.86029289 75.38480624 17 78.75 C8.35036235 83.72934486 -0.27887402 88.74127623 -8.875 93.8125 C-9.81496826 94.36591064 -10.75493652 94.91932129 -11.72338867 95.48950195 C-12.57908447 95.99570068 -13.43478027 96.50189941 -14.31640625 97.0234375 C-15.06736572 97.4673584 -15.8183252 97.9112793 -16.59204102 98.36865234 C-18.27401057 99.32318204 -18.27401057 99.32318204 -19.3125 100.4375 C-19.4008967 102.8131852 -19.42780305 105.15958674 -19.41015625 107.53515625 C-19.4087413 108.24401474 -19.40732635 108.95287323 -19.40586853 109.68321228 C-19.40025443 111.95551712 -19.38769963 114.22772475 -19.375 116.5 C-19.36998681 118.03710796 -19.36542359 119.57421745 -19.36132812 121.11132812 C-19.35028042 124.88675642 -19.33300641 128.66211171 -19.3125 132.4375 C-15.36671868 131.22206482 -11.93743275 129.81511298 -8.390625 127.70703125 C-7.46137207 127.15926025 -6.53211914 126.61148926 -5.57470703 126.04711914 C-4.58067871 125.45406982 -3.58665039 124.86102051 -2.5625 124.25 C-0.39882451 122.97330222 1.76525166 121.69728329 3.9296875 120.421875 C5.04569336 119.76251953 6.16169922 119.10316406 7.31152344 118.42382812 C12.70876205 115.24824718 18.13508064 112.12362939 23.5625 109 C25.7187915 107.75788455 27.87504114 106.51569641 30.03125 105.2734375 C31.11277344 104.65049805 32.19429687 104.02755859 33.30859375 103.38574219 C36.86381286 101.33583984 40.41654654 99.28168356 43.96875 97.2265625 C45.75582963 96.19326254 47.54297134 95.16007004 49.33013916 94.12692261 C51.02505767 93.14665502 52.71932345 92.16525912 54.41357422 91.18383789 C55.4398291 90.59078857 56.46608398 89.99773926 57.5234375 89.38671875 C58.42626465 88.86424561 59.3290918 88.34177246 60.25927734 87.8034668 C65.19126882 85.02903564 68.90937437 83.4241398 74.6875 84.4375 C78.35977156 85.90405035 81.7121089 87.82504575 85.125 89.8125 C86.58341309 90.63560669 86.58341309 90.63560669 88.07128906 91.4753418 C90.95490365 93.11022713 93.82336566 94.76876786 96.6875 96.4375 C97.43209473 96.8691748 98.17668945 97.30084961 98.94384766 97.74560547 C102.30047235 99.69608741 105.64385355 101.66785701 108.98046875 103.65234375 C114.4658976 106.90897421 119.98359095 110.10989946 125.50598145 113.30331421 C127.20655406 114.28735977 128.90554466 115.2741377 130.60449219 116.26098633 C136.22120136 119.50694558 141.84418104 122.61854128 147.6875 125.4375 C148.12427478 113.37766302 148.16908255 102.81706698 143.6875 91.4375 C143.28660156 90.41398437 142.88570312 89.39046875 142.47265625 88.3359375 C138.71903647 79.91477312 133.15530663 73.83852987 126.6875 67.4375 C126.10226562 66.83035156 125.51703125 66.22320312 124.9140625 65.59765625 C113.90310845 55.06179412 96.66479921 50.281205 81.81274414 50.36791992 C64.06438349 50.94899778 49.32039404 59.62135238 34.515625 68.546875 Z M-110.99609375 100.9921875 C-117.84661473 108.22393477 -122.77709952 116.14368208 -126.3125 125.4375 C-126.6321875 126.22898438 -126.951875 127.02046875 -127.28125 127.8359375 C-132.76664382 143.93658417 -129.88629707 161.75050615 -122.73828125 176.73828125 C-114.18313607 192.4326851 -101.48377578 200.83291312 -86.3125 209.4375 C-84.59882683 210.41788504 -82.88515793 211.39827763 -81.17173767 212.37910461 C-79.40194815 213.39141374 -77.63101212 214.40169246 -75.85986328 215.41162109 C-71.25372648 218.03983879 -66.65887729 220.68756858 -62.06542969 223.33789062 C-59.87096129 224.60350745 -57.67501632 225.86656778 -55.47753906 227.12695312 C-50.64885645 229.90185383 -45.84615314 232.70088361 -41.11328125 235.63671875 C-39.94551147 236.35347778 -39.94551147 236.35347778 -38.75415039 237.0847168 C-37.34714232 237.95318419 -35.94830191 238.83510732 -34.56030273 239.73364258 C-31.74338015 241.4648261 -29.7193209 242.43043902 -26.38671875 242.48828125 C-22.19406468 241.05521398 -18.63329875 238.94776819 -14.875 236.625 C-13.41818098 235.74313889 -11.961152 234.86162453 -10.50390625 233.98046875 C-9.80539551 233.55427246 -9.10688477 233.12807617 -8.38720703 232.68896484 C-5.39297595 230.8828424 -2.35657824 229.15806596 0.6875 227.4375 C-2.23879249 224.26309186 -5.15595489 222.1840497 -8.9140625 220.07421875 C-10.58879639 219.12663696 -10.58879639 219.12663696 -12.29736328 218.15991211 C-13.51073766 217.48159998 -14.72411669 216.80329616 -15.9375 216.125 C-17.19948773 215.41295541 -18.46103733 214.70013379 -19.72216797 213.98657227 C-21.66653665 212.88656737 -23.61116659 211.78705572 -25.55715942 210.68992615 C-32.94036198 206.52706888 -40.27903598 202.28765149 -47.61035156 198.03417969 C-52.63590835 195.1217286 -57.66919128 192.22750192 -62.74258423 189.39927673 C-65.14944868 188.05618739 -67.55045362 186.70280903 -69.95111084 185.34866333 C-71.64166431 184.40070192 -73.34051591 183.46758697 -75.03955078 182.53491211 C-76.0654834 181.95491455 -77.09141602 181.37491699 -78.1484375 180.77734375 C-79.05126465 180.27581787 -79.9540918 179.77429199 -80.88427734 179.25756836 C-83.97532852 176.9406785 -85.44030752 174.82983774 -87.3125 171.4375 C-87.70067332 168.51264165 -87.87761751 165.96393852 -87.85839844 163.04541016 C-87.86873611 162.22523407 -87.87907379 161.40505798 -87.88972473 160.56002808 C-87.91908062 157.86533743 -87.92065035 155.17140026 -87.921875 152.4765625 C-87.93686154 150.60182265 -87.95358969 148.72709598 -87.97198486 146.85238647 C-88.01561737 141.93035261 -88.03564841 137.00849685 -88.05072021 132.08630371 C-88.07030605 127.05873095 -88.11227443 122.0313501 -88.15234375 117.00390625 C-88.22760147 107.14849676 -88.27791985 97.29313031 -88.3125 87.4375 C-96.62805799 87.4375 -105.22588345 95.52762237 -110.99609375 100.9921875 Z M56.92578125 108.5 C55.80751953 109.13164063 54.68925781 109.76328125 53.53710938 110.4140625 C52.35799432 111.08840425 51.17895887 111.76288522 50 112.4375 C48.80957637 113.11256421 47.61882479 113.78705047 46.42773438 114.4609375 C43.51104102 116.11412402 40.59784937 117.77317853 37.6875 119.4375 C37.6875 120.7575 37.6875 122.0775 37.6875 123.4375 C38.7084375 123.99695313 39.729375 124.55640625 40.78125 125.1328125 C50.67745229 130.58059303 60.46973322 136.18920193 70.21655273 141.8996582 C76.75538799 145.73002684 83.30936477 149.53240348 89.87866211 153.31030273 C94.1981624 155.79552468 98.51184036 158.2907527 102.82519531 160.78662109 C105.39641229 162.26961062 107.974512 163.73971273 110.5546875 165.20703125 C111.91186412 165.99148588 113.26867332 166.77657675 114.625 167.5625 C116.30916016 168.52542969 116.30916016 168.52542969 118.02734375 169.5078125 C121.04346127 171.69571566 122.10981938 173.07226844 123.6875 176.4375 C123.98561824 179.29974769 124.12515819 181.94693028 124.11987305 184.80786133 C124.13516052 186.05253677 124.13516052 186.05253677 124.15075684 187.32235718 C124.18086055 190.05481745 124.19014872 192.786927 124.19921875 195.51953125 C124.21606739 197.41811791 124.23421788 199.31669342 124.25361633 201.21525574 C124.30110237 206.20466632 124.33092081 211.19403173 124.35705566 216.18359375 C124.38686818 221.27808555 124.43339616 226.37242171 124.47851562 231.46679688 C124.56453289 241.45694981 124.63188526 251.44713479 124.6875 261.4375 C126.91090435 260.37347464 129.12835951 259.2992387 131.34375 258.21875 C131.96540039 257.92258789 132.58705078 257.62642578 133.22753906 257.32128906 C139.30877625 254.33653485 143.98753305 250.30283615 148.6875 245.4375 C149.25984375 244.85097656 149.8321875 244.26445312 150.421875 243.66015625 C161.30992069 231.73381755 167.02038278 215.53336142 166.6875 199.4375 C165.52628168 181.3876854 158.04917015 164.74932464 144.6875 152.4375 C137.74544952 147.11816188 130.28252944 142.74511998 122.6875 138.4375 C120.97382683 137.45711496 119.26015793 136.47672237 117.54673767 135.49589539 C115.77694815 134.48358626 114.00601212 133.47330754 112.23486328 132.46337891 C106.5206543 129.2029058 100.82357692 125.91268896 95.125 122.625 C94.04726318 122.00488037 92.96952637 121.38476074 91.85913086 120.74584961 C87.01367063 117.95421265 82.17999778 115.14736934 77.3828125 112.2734375 C76.59076416 111.80010986 75.79871582 111.32678223 74.98266602 110.83911133 C73.54208609 109.97507842 72.10480227 109.10551461 70.67163086 108.22924805 C64.82863181 104.72435603 62.72507993 105.20293679 56.92578125 108.5 Z M12.4453125 134.25390625 C11.37796875 134.85396484 10.310625 135.45402344 9.2109375 136.07226562 C8.08945313 136.70841797 6.96796875 137.34457031 5.8125 138 C4.7296875 138.60908203 3.646875 139.21816406 2.53125 139.84570312 C0.33563214 141.08368575 -1.84610586 142.34659003 -4.01367188 143.63305664 C-7.3125 145.4375 -7.3125 145.4375 -10.78320312 146.69311523 C-14.5477363 148.21835225 -16.67427637 149.32314389 -19.3125 152.4375 C-21.3043009 159.49299247 -20.4319705 167.14650725 -20.0625 174.375 C-20.00227016 176.41455741 -19.94752363 178.4542846 -19.8984375 180.49414062 C-19.76653768 185.47946254 -19.55975297 190.45662066 -19.3125 195.4375 C-18.57725098 195.86047363 -17.84200195 196.28344727 -17.08447266 196.71923828 C-14.30703344 198.31762946 -11.53007435 199.91685093 -8.75341797 201.51660156 C-7.56089573 202.2034482 -6.36819303 202.88998165 -5.17529297 203.57617188 C-3.44188559 204.57335493 -1.70922209 205.5718307 0.0234375 206.5703125 C1.15233398 207.21774414 2.28123047 207.86517578 3.44433594 208.53222656 C5.51788149 209.75037994 7.57092512 211.00458949 9.59472656 212.30371094 C10.46323242 212.8609082 11.33173828 213.41810547 12.2265625 213.9921875 C12.97373535 214.48960449 13.7209082 214.98702148 14.49072266 215.49951172 C17.33905951 216.71570534 18.76669141 216.36107238 21.6875 215.4375 C23.56206809 214.59695774 23.56206809 214.59695774 25.296875 213.50390625 C25.97105469 213.10107422 26.64523438 212.69824219 27.33984375 212.28320312 C28.03207031 211.85974609 28.72429687 211.43628906 29.4375 211 C30.78619317 210.1883613 32.13516839 209.37719116 33.484375 208.56640625 C34.24049072 208.08171875 34.99660645 207.59703125 35.77563477 207.09765625 C38.18838113 205.72206513 40.46148977 204.68379957 43.01928711 203.63671875 C51.35136356 200.10612846 51.35136356 200.10612846 56.57342529 193.15322876 C57.81608237 186.56108834 57.23743039 179.95799941 56.75 173.3125 C56.6646228 171.28677599 56.58707382 169.26070602 56.51757812 167.234375 C56.33115197 162.29347556 56.0386829 157.36931558 55.6875 152.4375 C54.88119141 151.97899658 54.07488281 151.52049316 53.24414062 151.0480957 C50.2166808 149.32547802 47.19009414 147.60134507 44.1640625 145.8762207 C42.8610171 145.13376166 41.55763914 144.39188593 40.25390625 143.65063477 C38.36628066 142.57726485 36.47966913 141.50214641 34.59375 140.42578125 C33.98523193 140.07863068 33.37671387 139.7314801 32.74975586 139.37380981 C29.41751866 137.46265031 26.14035844 135.49045913 22.90625 133.41796875 C18.14834087 130.49046884 17.09178448 131.63212995 12.4453125 134.25390625 Z M71.6875 162.4375 C71.67719254 163.69395325 71.66688507 164.95040649 71.65626526 166.24493408 C71.55858458 178.07551791 71.45585549 189.90604853 71.34816074 201.73654556 C71.29295439 207.81897416 71.23953795 213.90140758 71.19018555 219.98388672 C71.14250839 225.85183678 71.09016421 231.71972823 71.03455925 237.58760834 C71.01415092 239.82832126 70.99543532 242.06905026 70.97842598 244.30979156 C70.95434843 247.44389156 70.9242982 250.57788087 70.89282227 253.71191406 C70.8870668 254.64195755 70.88131134 255.57200104 70.87538147 256.53022766 C70.86559265 257.38555588 70.85580383 258.24088409 70.84571838 259.12213135 C70.83926583 259.86325291 70.83281328 260.60437447 70.8261652 261.36795425 C70.68120278 263.53148454 70.39937062 265.38714588 69.6875 267.4375 C67.57421875 268.42578125 67.57421875 268.42578125 64.6875 269.4375 C62.26628353 270.80176788 59.88025104 272.19283691 57.5 273.625 C55.97460319 274.532335 54.4485158 275.43850965 52.921875 276.34375 C52.08720703 276.83875 51.25253906 277.33375 50.39257812 277.84375 C45.36524975 280.80569943 40.30645422 283.71314725 35.25 286.625 C34.16323975 287.25116211 33.07647949 287.87732422 31.95678711 288.52246094 C29.70356954 289.82051911 27.45023094 291.11836723 25.19677734 292.41601562 C19.7353391 295.56141693 14.27687041 298.71196737 8.81808472 301.86196899 C6.03247405 303.46935937 3.24669916 305.07646507 0.4609375 306.68359375 C-0.46283691 307.21654053 -1.38661133 307.7494873 -2.33837891 308.29858398 C-2.98983887 308.67442627 -3.64129883 309.05026855 -4.3125 309.4375 C6.00578171 320.2475982 22.08658506 324.33460951 36.5625 324.875 C55.09486656 324.37692968 71.98224285 316.59043154 84.8359375 303.19921875 C98.90808259 286.72779988 101.15137141 269.22023841 100.98046875 248.359375 C100.97486332 246.33628659 100.97059771 244.31319406 100.96760559 242.2901001 C100.95623133 237.00307685 100.92682911 231.71630661 100.89349365 226.42938232 C100.86263164 221.0193626 100.84906599 215.60930141 100.83398438 210.19921875 C100.8019514 199.6118689 100.75084627 189.02470561 100.6875 178.4375 C96.71974148 176.15612417 92.75040034 173.87753694 88.77954102 171.6015625 C87.42786063 170.8262934 86.07662233 170.05025302 84.72583008 169.2734375 C82.78841965 168.15944427 80.84945603 167.04820004 78.91015625 165.9375 C78.30285172 165.58751953 77.69554718 165.23753906 77.06983948 164.87695312 C74.53359141 163.16793372 74.53359141 163.16793372 71.6875 162.4375 Z M48.71875 218.19140625 C47.16994141 219.09052734 47.16994141 219.09052734 45.58984375 220.0078125 C43.90568359 220.99394531 43.90568359 220.99394531 42.1875 222 C41.01198406 222.68404988 39.83619853 223.36763667 38.66015625 224.05078125 C36.21379074 225.47232132 33.76860537 226.89586082 31.32421875 228.32080078 C25.7894499 231.54507164 20.23766868 234.73983876 14.6875 237.9375 C12.54810389 239.17174814 10.40878147 240.40612402 8.26953125 241.640625 C4.27159092 243.94719856 0.27316804 246.25293126 -3.7258606 248.55761719 C-6.11676597 249.93556938 -8.50748672 251.31384172 -10.89819336 252.69213867 C-12.58233963 253.66290982 -14.26675231 254.63321874 -15.95117188 255.60351562 C-16.97404297 256.19326172 -17.99691406 256.78300781 -19.05078125 257.390625 C-19.94837158 257.90786133 -20.84596191 258.42509766 -21.77075195 258.95800781 C-23.53065882 259.98240851 -25.27704788 261.03025598 -27.01196289 262.09643555 C-30.85055513 264.33408674 -34.00975682 264.16898638 -38.3125 263.4375 C-40.7355957 262.33154297 -40.7355957 262.33154297 -43.30078125 260.8671875 C-44.2659668 260.32167236 -45.23115234 259.77615723 -46.22558594 259.21411133 C-47.24426758 258.62782959 -48.26294922 258.04154785 -49.3125 257.4375 C-50.33375977 256.85959717 -51.35501953 256.28169434 -52.40722656 255.6862793 C-55.73557465 253.80077571 -59.05602372 251.90194849 -62.375 250 C-63.58925327 249.30505803 -64.80352776 248.61015312 -66.01782227 247.9152832 C-74.60359113 242.99975056 -83.17932146 238.06678958 -91.75 233.125 C-93.38304077 232.18346069 -93.38304077 232.18346069 -95.04907227 231.22290039 C-96.06283936 230.63758545 -97.07660645 230.05227051 -98.12109375 229.44921875 C-99.00595459 228.93834717 -99.89081543 228.42747559 -100.80249023 227.90112305 C-102.54039343 226.88772652 -104.25516178 225.83399049 -105.94946289 224.74926758 C-108.29920676 223.19482427 -108.29920676 223.19482427 -111.3125 223.4375 C-112.11004395 242.77794087 -109.10522775 259.68898104 -95.875 274.8125 C-94.37297097 276.37249324 -92.85318367 277.91567085 -91.3125 279.4375 C-90.69890625 280.07300781 -90.0853125 280.70851563 -89.453125 281.36328125 C-77.71863876 292.67151479 -60.38861937 297.84948298 -44.3984375 297.65234375 C-29.52922465 296.61714539 -16.79366751 290.64902684 -4.1875 283.0625 C-2.08641222 281.81690723 0.01516798 280.57214476 2.1171875 279.328125 C3.19452148 278.68810547 4.27185547 278.04808594 5.38183594 277.38867188 C10.87234892 274.1478905 16.40734703 270.98498174 21.9375 267.8125 C30.08068219 263.12686384 38.19156133 258.39257618 46.25 253.5625 C47.09530273 253.05638184 47.94060547 252.55026367 48.81152344 252.02880859 C52.44936975 249.99988442 52.44936975 249.99988442 55.6875 247.4375 C55.7758967 245.0618148 55.80280305 242.71541326 55.78515625 240.33984375 C55.7837413 239.63098526 55.78232635 238.92212677 55.78086853 238.19178772 C55.77525443 235.91948288 55.76269963 233.64727525 55.75 231.375 C55.74498681 229.83789204 55.74042359 228.30078255 55.73632812 226.76367188 C55.72528042 222.98824358 55.70800641 219.21288829 55.6875 215.4375 C52.81090442 215.4375 51.19991452 216.74354957 48.71875 218.19140625 Z " fill="#000000" transform="translate(155.3125,-0.4375)"/>
<path d="M0 0 C21.08412653 17.19376512 32.65940516 40.51621133 35.75683594 67.36572266 C38.40803209 96.08701436 32.67110745 124.8331533 14.625 147.8125 C-0.33360018 165.19199799 -20.45568099 175.89986552 -43.41796875 177.83984375 C-67.30670009 179.32159562 -90.12938552 173.13626271 -108.39355469 157.32739258 C-127.5440314 140.06915142 -137.78635081 115.14619157 -139.1262207 89.59277344 C-140.05794974 58.65345367 -133.18101448 31.59510097 -112.29296875 8.078125 C-84.1028387 -21.76248105 -32.30491803 -24.45204858 0 0 Z M-86.9765625 28.72265625 C-94.48604932 37.1744532 -98.7876006 46.22670932 -102 57 C-102.23460937 57.74378906 -102.46921875 58.48757812 -102.7109375 59.25390625 C-108.26817676 79.83179946 -104.7518597 103.2243262 -95.125 121.9375 C-88.17805199 133.83899722 -78.2078465 141.87116059 -65 146 C-52.68004298 149.12721226 -38.51355617 147.68695023 -27.41015625 141.57421875 C-25.18416734 140.14084486 -23.09086302 138.62244157 -21 137 C-19.96875 136.2575 -18.9375 135.515 -17.875 134.75 C-4.31774932 121.78219501 1.09632634 103.2711519 2 85 C2.04125 84.30003906 2.0825 83.60007812 2.125 82.87890625 C2.73318729 62.7707141 -2.97722912 43.50836895 -16.34765625 28.3359375 C-25.98804827 18.96202787 -38.13644043 14.32200879 -51.50390625 13.92578125 C-64.87054843 14.32322444 -77.32590875 19.37694881 -86.9765625 28.72265625 Z " fill="#000000" transform="translate(537,86)"/>
<path d="M0 0 C13.2 0 26.4 0 40 0 C41.29550781 3.46242188 42.59101562 6.92484375 43.92578125 10.4921875 C53.58882896 36.30467484 63.29305348 62.10040016 73.09936523 87.85888672 C73.87616393 89.89940469 74.65293816 91.93993199 75.4296875 93.98046875 C75.80966385 94.97864624 76.1896402 95.97682373 76.58113098 97.00524902 C81.05409478 108.76139756 85.49442652 120.52988061 89.93026733 132.30007935 C93.57256276 141.96464768 97.22954303 151.62272294 100.94921875 161.2578125 C101.25909729 162.06188538 101.56897583 162.86595825 101.88824463 163.69439697 C103.33388258 167.44518666 104.78401431 171.19408911 106.24365234 174.93945312 C106.74728032 176.24340849 107.25071096 177.5474401 107.75390625 178.8515625 C108.40854858 180.53499756 108.40854858 180.53499756 109.07641602 182.25244141 C110 185 110 185 110 188 C98.78 188 87.56 188 76 188 C73.38265709 182.76531418 71.01142041 177.76615278 68.984375 172.32421875 C68.59333588 171.28646049 68.59333588 171.28646049 68.19439697 170.22773743 C67.65119351 168.78243916 67.11017341 167.33631851 66.57128906 165.8894043 C65.74457127 163.67294539 64.90786646 161.46043052 64.0703125 159.24804688 C63.54106698 157.83616215 63.0124 156.42406039 62.484375 155.01171875 C62.23443787 154.3523381 61.98450073 153.69295746 61.72698975 153.01359558 C60.68080638 150.18520683 60 148.04413831 60 145 C33.6 145.33 7.2 145.66 -20 146 C-24.89267735 159.07352654 -24.89267735 159.07352654 -29.78295898 172.14794922 C-30.39558352 173.78356125 -31.0082895 175.41914279 -31.62109375 177.0546875 C-31.93985474 177.90812744 -32.25861572 178.76156738 -32.58703613 179.64086914 C-32.8914563 180.45273682 -33.19587646 181.26460449 -33.50952148 182.10107422 C-33.77377426 182.8072287 -34.03802704 183.51338318 -34.31028748 184.24093628 C-35 186 -35 186 -36 188 C-47.22 188 -58.44 188 -70 188 C-69.18574905 183.11449432 -68.20926638 179.55928585 -66.4296875 175.02734375 C-66.16123016 174.33747375 -65.89277283 173.64760376 -65.61618042 172.93682861 C-65.02344786 171.41451868 -64.42825074 169.89316667 -63.83093262 168.37265015 C-62.12612996 164.02982267 -60.44278015 159.67867835 -58.7578125 155.328125 C-58.199729 153.88864754 -58.199729 153.88864754 -57.63037109 152.42008972 C-52.83500535 140.02719788 -48.16593849 127.58643023 -43.48783493 115.14894104 C-41.26287424 109.23416385 -39.03580724 103.32017919 -36.80859375 97.40625 C-36.56408289 96.75692757 -36.31957203 96.10760513 -36.06765175 95.43860626 C-31.01064559 82.010899 -25.91646181 68.59742694 -20.8125 55.1875 C-13.81920714 36.81213241 -6.88390606 18.41668375 0 0 Z M19 39 C11.78698589 58.20211159 4.57733102 77.40555765 -2.57803345 96.62924194 C-3.1511802 98.16853467 -3.72489074 99.7076176 -4.29916382 101.24649048 C-5.09558103 103.38118086 -5.88990045 105.51663938 -6.68359375 107.65234375 C-7.13275146 108.85882568 -7.58190918 110.06530762 -8.04467773 111.30834961 C-9.0557464 113.68104137 -9.0557464 113.68104137 -9 115 C9.81 115 28.62 115 48 115 C45.59182986 106.89688359 45.59182986 106.89688359 42.79516602 98.99047852 C42.38786758 97.92559708 41.98056915 96.86071564 41.56092834 95.76356506 C41.12961105 94.64662766 40.69829376 93.52969025 40.25390625 92.37890625 C39.80152084 91.19836166 39.34913544 90.01781708 38.88304138 88.80149841 C37.68869513 85.68621257 36.49136876 82.57210931 35.2923584 79.45861816 C33.60892252 75.0851762 31.93087703 70.70966382 30.25267029 66.33421326 C29.36244086 64.01409526 28.47096812 61.69445378 27.57801819 59.37538147 C24.9778574 52.60950236 22.45096393 45.82137025 20 39 C19.67 39 19.34 39 19 39 Z " fill="#000000" transform="translate(1099,73)"/>
<path d="M0 0 C15.20497639 10.80077633 23.71759585 26.74794317 27.140625 44.859375 C30.91945629 67.75017039 27.99081621 92.35033677 14.265625 111.609375 C4.33113414 124.51838074 -8.71927052 132.02136406 -24.8046875 134.29296875 C-38.6600823 135.78935139 -51.83310601 133.03056859 -63.734375 125.609375 C-65.714375 123.959375 -67.694375 122.309375 -69.734375 120.609375 C-70.064375 139.749375 -70.394375 158.889375 -70.734375 178.609375 C-81.624375 178.609375 -92.514375 178.609375 -103.734375 178.609375 C-103.734375 117.559375 -103.734375 56.509375 -103.734375 -6.390625 C-92.844375 -6.390625 -81.954375 -6.390625 -70.734375 -6.390625 C-70.239375 -0.450625 -70.239375 -0.450625 -69.734375 5.609375 C-68.620625 4.5575 -67.506875 3.505625 -66.359375 2.421875 C-48.51392517 -13.15348227 -19.30502988 -12.57940656 0 0 Z M-64.734375 31.609375 C-73.61007544 45.28099181 -74.09809187 64.25323929 -71.046875 79.91796875 C-68.25702995 89.7870456 -62.64191197 97.64176902 -53.66015625 102.80078125 C-45.54910654 106.64850235 -36.44209263 107.01192848 -27.76171875 104.87890625 C-17.75861637 101.18243554 -11.95163554 94.38150983 -7.46875 84.9453125 C-2.50244413 71.69017218 -2.55119253 54.43525257 -7.54296875 41.19921875 C-11.69453422 32.17466824 -17.22293663 25.42787733 -26.421875 21.171875 C-40.50964736 16.18065504 -55.1344524 20.36761453 -64.734375 31.609375 Z " fill="#000000" transform="translate(698.734375,129.390625)"/>
<path d="M0 0 C0.86109375 0.33902344 1.7221875 0.67804688 2.609375 1.02734375 C16.1717835 6.94510274 25.03218144 18.43844783 30.51391602 31.81323242 C36.02309897 46.03672679 36 58.30086599 36 74 C4.32 74 -27.36 74 -60 74 C-54.60392734 93.41295021 -54.60392734 93.41295021 -40.9140625 106.21875 C-32.36893642 110.66602751 -23.40148775 111.34682759 -13.91796875 109.3515625 C-6.45190652 106.90812395 -0.48579304 103.15309325 3.6015625 96.32421875 C4.82355446 93.9109553 5.95594217 91.49469587 7 89 C16.61727698 91.53722131 25.77356452 95.33153709 35 99 C33.17230343 110.73464273 23.38340648 121.02300192 14.125 127.8125 C-1.87922378 138.22872528 -19.88781335 140.94498738 -38.578125 137.7421875 C-55.10376939 134.15785824 -69.69341729 125.68689088 -79.08984375 111.33544922 C-91.04196005 91.98769512 -93.88274248 68.85314426 -88.97265625 46.78515625 C-84.34515512 28.77692895 -74.94475479 13.80662363 -59 4 C-41.94896303 -6.06693223 -18.28971586 -8.10202325 0 0 Z M-49.140625 31.66015625 C-52.77878055 36.23842343 -58 44.03988521 -58 50 C-37.87 50 -17.74 50 3 50 C2.01116628 40.11166275 0.64091015 35.20982659 -6.25 28.6875 C-18.67646766 18.90099006 -37.88112827 21.02877194 -49.140625 31.66015625 Z " fill="#000000" transform="translate(835,125)"/>
<path d="M0 0 C0.88623047 -0.01611328 1.77246094 -0.03222656 2.68554688 -0.04882812 C14.87419475 -0.05771846 25.37726308 4.27333047 34.4375 12.4375 C47.65801132 26.62460531 47.11444156 45.33593301 46.98046875 63.359375 C46.97486463 65.58424593 46.9705984 67.8091206 46.96760559 70.03399658 C46.95622105 75.85366262 46.92680955 81.67309949 46.89349365 87.49267578 C46.8626542 93.4456065 46.84907074 99.3985747 46.83398438 105.3515625 C46.80193314 117.00532456 46.7492181 128.65885726 46.6875 140.3125 C36.1275 140.3125 25.5675 140.3125 14.6875 140.3125 C14.67291748 137.70432373 14.65833496 135.09614746 14.64331055 132.40893555 C14.59281257 123.75954261 14.52619113 115.11032684 14.45178509 106.46110821 C14.40719349 101.22075141 14.36791296 95.98047036 14.34106445 90.73999023 C14.31491928 85.6758903 14.27443848 80.61208361 14.22431374 75.54816628 C14.20772054 73.6230721 14.19615954 71.6979273 14.18988609 69.77277184 C14.67625458 51.36338401 14.67625458 51.36338401 6.33203125 35.68359375 C0.7914072 31.06421361 -4.85472546 30.649209 -11.890625 30.84375 C-18.67697176 31.77338654 -24.6889914 34.40881087 -29.32421875 39.5390625 C-30.85259274 41.75205922 -32.14249977 43.89253549 -33.3125 46.3125 C-33.65832123 47.00361374 -34.00414246 47.69472748 -34.36044312 48.40678406 C-35.63180755 52.28703948 -35.62063039 56.01038879 -35.63134766 60.05004883 C-35.64641609 61.3532457 -35.64641609 61.3532457 -35.66178894 62.68276978 C-35.6925984 65.54501708 -35.7096499 68.40717093 -35.7265625 71.26953125 C-35.74527594 73.25779523 -35.76484949 75.24605129 -35.7852478 77.23429871 C-35.83655634 82.46043218 -35.87618899 87.6865914 -35.91339111 92.9128418 C-35.9534387 98.24859987 -36.00452763 103.58425097 -36.0546875 108.91992188 C-36.15143177 119.38404688 -36.23482071 129.84821608 -36.3125 140.3125 C-47.2025 140.3125 -58.0925 140.3125 -69.3125 140.3125 C-69.3125 94.7725 -69.3125 49.2325 -69.3125 2.3125 C-58.4225 2.3125 -47.5325 2.3125 -36.3125 2.3125 C-35.8175 8.2525 -35.8175 8.2525 -35.3125 14.3125 C-34.19875 13.260625 -33.085 12.20875 -31.9375 11.125 C-22.58420607 2.94707575 -12.23820865 -0.04392753 0 0 Z " fill="#000000" transform="translate(962.3125,120.6875)"/>
<path d="M0 0 C11.22 0 22.44 0 34 0 C34 62.04 34 124.08 34 188 C22.45 188 10.9 188 -1 188 C-1.02254463 163.63549815 -1.04097777 139.27100471 -1.05181217 114.90649509 C-1.05697574 103.59447927 -1.06401958 92.28247037 -1.07543945 80.97045898 C-1.08538445 71.11472298 -1.09185299 61.25899199 -1.09408849 51.40325111 C-1.09539592 46.18128364 -1.09848374 40.95933052 -1.10573006 35.73736763 C-1.11248737 30.82829892 -1.11461755 25.91925054 -1.11310768 21.01017761 C-1.11338414 19.20291979 -1.11539097 17.39566133 -1.11920547 15.58840752 C-1.12413823 13.13207875 -1.12299985 10.67582804 -1.12025452 8.21949768 C-1.12316736 7.49480319 -1.1260802 6.7701087 -1.12908131 6.02345377 C-1.11412121 1.11412121 -1.11412121 1.11412121 0 0 Z " fill="#000000" transform="translate(1229,73)"/>
</svg>
